<svg id="Illustration" xmlns="http://www.w3.org/2000/svg" xmlns:xlink="http://www.w3.org/1999/xlink" viewBox="0 0 2067.73 641.18"><defs><style>.cls-1{fill:url(#linear-gradient);}.cls-2{fill:url(#linear-gradient-2);}.cls-3{fill:url(#linear-gradient-3);}.cls-4{fill:url(#linear-gradient-4);}.cls-5{fill:url(#linear-gradient-5);}.cls-6{fill:url(#linear-gradient-6);}.cls-7{fill:url(#linear-gradient-7);}.cls-11,.cls-14,.cls-19,.cls-26,.cls-28,.cls-40,.cls-51,.cls-8,.cls-96,.cls-97{fill:#fff;}.cls-9{fill:url(#linear-gradient-8);}.cls-10{fill:#bdd0fb;}.cls-11{opacity:0.78;}.cls-12,.cls-14{opacity:0.6;}.cls-13{fill:url(#linear-gradient-9);}.cls-15{fill:url(#linear-gradient-10);}.cls-16{fill:url(#linear-gradient-11);}.cls-17{fill:url(#linear-gradient-12);}.cls-18{fill:url(#linear-gradient-13);}.cls-19{opacity:0.48;}.cls-20{fill:url(#linear-gradient-14);}.cls-21{fill:url(#linear-gradient-15);}.cls-22{fill:url(#linear-gradient-16);}.cls-23{fill:url(#linear-gradient-17);}.cls-24{fill:url(#linear-gradient-18);}.cls-25{fill:url(#linear-gradient-19);}.cls-26{opacity:0.5;}.cls-27{fill:#91b3fa;}.cls-28{opacity:0.44;}.cls-29{fill:#7d97f4;}.cls-30{fill:url(#linear-gradient-20);}.cls-31{fill:url(#linear-gradient-21);}.cls-32{fill:url(#linear-gradient-22);}.cls-33{fill:url(#linear-gradient-23);}.cls-34{fill:url(#linear-gradient-24);}.cls-35{fill:url(#linear-gradient-25);}.cls-36{fill:url(#linear-gradient-26);}.cls-37{fill:url(#linear-gradient-27);}.cls-38{fill:url(#linear-gradient-28);}.cls-39{fill:url(#linear-gradient-29);}.cls-40{opacity:0.13;}.cls-41{fill:url(#linear-gradient-30);}.cls-42{fill:url(#linear-gradient-31);}.cls-43{fill:url(#linear-gradient-32);}.cls-44{fill:url(#linear-gradient-33);}.cls-45{fill:url(#linear-gradient-34);}.cls-46{fill:url(#linear-gradient-35);}.cls-47{fill:url(#linear-gradient-36);}.cls-48{fill:url(#linear-gradient-37);}.cls-49{fill:url(#linear-gradient-38);}.cls-50{fill:url(#linear-gradient-39);}.cls-51{opacity:0.26;}.cls-52{fill:url(#linear-gradient-40);}.cls-53{fill:url(#linear-gradient-41);}.cls-54{fill:url(#linear-gradient-42);}.cls-55{fill:url(#linear-gradient-43);}.cls-56{fill:url(#linear-gradient-44);}.cls-57{fill:url(#linear-gradient-45);}.cls-58{fill:url(#linear-gradient-46);}.cls-59{fill:url(#linear-gradient-47);}.cls-60{fill:url(#linear-gradient-48);}.cls-61{fill:url(#linear-gradient-49);}.cls-62{fill:url(#linear-gradient-50);}.cls-63{fill:url(#linear-gradient-51);}.cls-64{fill:url(#linear-gradient-52);}.cls-65{fill:url(#linear-gradient-53);}.cls-66{fill:url(#linear-gradient-54);}.cls-67{fill:url(#linear-gradient-55);}.cls-68{fill:url(#linear-gradient-56);}.cls-69{fill:url(#linear-gradient-57);}.cls-70{fill:url(#linear-gradient-58);}.cls-71{fill:url(#linear-gradient-59);}.cls-72{fill:url(#linear-gradient-60);}.cls-73{fill:url(#linear-gradient-61);}.cls-74{fill:url(#linear-gradient-62);}.cls-75{fill:url(#linear-gradient-63);}.cls-76{fill:url(#linear-gradient-64);}.cls-77{fill:url(#linear-gradient-65);}.cls-78{fill:url(#linear-gradient-66);}.cls-79{fill:url(#linear-gradient-67);}.cls-80{fill:url(#linear-gradient-68);}.cls-81{fill:url(#linear-gradient-69);}.cls-82{fill:url(#linear-gradient-70);}.cls-83{fill:url(#linear-gradient-71);}.cls-84{fill:url(#linear-gradient-72);}.cls-85{fill:url(#linear-gradient-73);}.cls-86{fill:url(#linear-gradient-74);}.cls-87{fill:url(#linear-gradient-75);}.cls-88{fill:url(#linear-gradient-76);}.cls-89{fill:url(#linear-gradient-77);}.cls-90{fill:url(#linear-gradient-78);}.cls-91{fill:url(#linear-gradient-79);}.cls-92{fill:url(#linear-gradient-80);}.cls-93{fill:url(#linear-gradient-81);}.cls-94{fill:url(#linear-gradient-82);}.cls-95{fill:url(#linear-gradient-83);}.cls-96{font-size:113px;}.cls-96,.cls-97{font-family:ourgette-RegulCar, Courgette;}.cls-97{font-size:133px;}</style><linearGradient id="linear-gradient" x1="668.7" y1="719.68" x2="203.97" y2="218.07" gradientUnits="userSpaceOnUse"><stop offset="0" stop-color="#dae3fe"/><stop offset="1" stop-color="#e9effd"/></linearGradient><linearGradient id="linear-gradient-2" x1="521.68" y1="95.03" x2="764.92" y2="-238.43" gradientUnits="userSpaceOnUse"><stop offset="0" stop-color="#4f52ff"/><stop offset="1" stop-color="#4042e2"/></linearGradient><linearGradient id="linear-gradient-3" x1="564.62" y1="127.46" x2="807.87" y2="-206" xlink:href="#linear-gradient-2"/><linearGradient id="linear-gradient-4" x1="609.36" y1="161.23" x2="852.6" y2="-172.23" xlink:href="#linear-gradient-2"/><linearGradient id="linear-gradient-5" x1="541.1" y1="106.93" x2="787.24" y2="-230.5" xlink:href="#linear-gradient-2"/><linearGradient id="linear-gradient-6" x1="716.95" y1="237.77" x2="963.1" y2="-99.66" xlink:href="#linear-gradient-2"/><linearGradient id="linear-gradient-7" x1="-2911.05" y1="785.07" x2="-3335.49" y2="1342.57" gradientTransform="translate(3037.22 -1285.01) rotate(-10.88)" gradientUnits="userSpaceOnUse"><stop offset="0" stop-color="#09005d"/><stop offset="1" stop-color="#1a0f91"/></linearGradient><linearGradient id="linear-gradient-8" x1="-454.85" y1="-535.6" x2="-372.62" y2="348.01" gradientTransform="translate(504.01 688.77) rotate(21.15)" xlink:href="#linear-gradient-2"/><linearGradient id="linear-gradient-9" x1="-3117.7" y1="899.82" x2="-3215.35" y2="1066.48" gradientTransform="translate(3037.22 -1285.01) rotate(-10.88)" gradientUnits="userSpaceOnUse"><stop offset="0" stop-color="#e1473d"/><stop offset="1" stop-color="#e9605a"/></linearGradient><linearGradient id="linear-gradient-10" x1="127.85" y1="94.18" x2="128.24" y2="152.37" gradientUnits="userSpaceOnUse"><stop offset="0" stop-color="#ff928e"/><stop offset="1" stop-color="#fe7062"/></linearGradient><linearGradient id="linear-gradient-11" x1="-2496.03" y1="92.69" x2="-2465.54" y2="211.66" gradientTransform="translate(2535.13 -357.03) rotate(-8.81)" xlink:href="#linear-gradient-9"/><linearGradient id="linear-gradient-12" x1="-2449.97" y1="111.21" x2="-2396.11" y2="194.22" gradientTransform="translate(2535.13 -357.03) rotate(-8.81)" xlink:href="#linear-gradient-9"/><linearGradient id="linear-gradient-13" x1="-2440.82" y1="79.58" x2="-2493.34" y2="196.75" gradientTransform="translate(2535.13 -357.03) rotate(-8.81)" xlink:href="#linear-gradient-10"/><linearGradient id="linear-gradient-14" x1="-2441.49" y1="107.02" x2="-2454.87" y2="132.03" gradientTransform="translate(2535.13 -357.03) rotate(-8.81)" xlink:href="#linear-gradient-7"/><linearGradient id="linear-gradient-15" x1="-2438.28" y1="97.62" x2="-2448.5" y2="115.81" gradientTransform="translate(2535.13 -357.03) rotate(-8.81)" xlink:href="#linear-gradient-7"/><linearGradient id="linear-gradient-16" x1="-2456.59" y1="97.42" x2="-2466.81" y2="115.6" gradientTransform="translate(2535.13 -357.03) rotate(-8.81)" xlink:href="#linear-gradient-7"/><linearGradient id="linear-gradient-17" x1="-508.19" y1="-582.67" x2="-621.68" y2="-433.37" gradientTransform="translate(409.87 741.61) rotate(26.53)" xlink:href="#linear-gradient-7"/><linearGradient id="linear-gradient-18" x1="-3021.29" y1="694.23" x2="-3143.83" y2="855.43" xlink:href="#linear-gradient-7"/><linearGradient id="linear-gradient-19" x1="-2985.75" y1="610.55" x2="-3070.44" y2="766.06" gradientTransform="translate(3037.22 -1285.01) rotate(-10.88)" xlink:href="#linear-gradient-2"/><linearGradient id="linear-gradient-20" x1="652.52" y1="210.61" x2="571.6" y2="125.03" xlink:href="#linear-gradient-10"/><linearGradient id="linear-gradient-21" x1="923.97" y1="-68.82" x2="662.26" y2="27.29" gradientTransform="matrix(1, 0, 0, 1, 0, 0)" xlink:href="#linear-gradient-9"/><linearGradient id="linear-gradient-22" x1="598.87" y1="52.96" x2="546.79" y2="140.09" xlink:href="#linear-gradient-10"/><linearGradient id="linear-gradient-23" x1="616.54" y1="67.67" x2="548.23" y2="159.79" gradientUnits="userSpaceOnUse"><stop offset="0" stop-color="#febbba"/><stop offset="1" stop-color="#ff928e"/></linearGradient><linearGradient id="linear-gradient-24" x1="547.77" y1="154.7" x2="592.04" y2="84.82" xlink:href="#linear-gradient-10"/><linearGradient id="linear-gradient-25" x1="603.03" y1="58.76" x2="530.75" y2="129.04" xlink:href="#linear-gradient-23"/><linearGradient id="linear-gradient-26" x1="537.52" y1="53.28" x2="611.89" y2="-64.13" xlink:href="#linear-gradient-10"/><linearGradient id="linear-gradient-27" x1="542.29" y1="27.77" x2="563.74" y2="-8.99" gradientTransform="matrix(1, 0, 0, 1, 0, 0)" xlink:href="#linear-gradient-9"/><linearGradient id="linear-gradient-28" x1="576.27" y1="-8.77" x2="556.38" y2="10.35" xlink:href="#linear-gradient-10"/><linearGradient id="linear-gradient-29" x1="563.35" y1="13.16" x2="559.23" y2="20.06" gradientTransform="matrix(1, 0, 0, 1, 0, 0)" xlink:href="#linear-gradient-7"/><linearGradient id="linear-gradient-30" x1="582.37" y1="155.17" x2="509.96" y2="224.35" xlink:href="#linear-gradient-2"/><linearGradient id="linear-gradient-31" x1="524.49" y1="130.69" x2="583.23" y2="130.69" xlink:href="#linear-gradient-2"/><linearGradient id="linear-gradient-32" x1="-257.61" y1="173.32" x2="-265.98" y2="187.32" gradientTransform="translate(619.08 -177.44) rotate(-41.33)" xlink:href="#linear-gradient-10"/><linearGradient id="linear-gradient-33" x1="-255.28" y1="175.47" x2="-263.65" y2="189.47" gradientTransform="translate(619.08 -177.44) rotate(-41.33)" xlink:href="#linear-gradient-10"/><linearGradient id="linear-gradient-34" x1="-252.28" y1="177.67" x2="-260.65" y2="191.68" gradientTransform="translate(619.08 -177.44) rotate(-41.33)" xlink:href="#linear-gradient-10"/><linearGradient id="linear-gradient-35" x1="-247.58" y1="184.2" x2="-255.95" y2="198.2" gradientTransform="translate(619.08 -177.44) rotate(-41.33)" xlink:href="#linear-gradient-10"/><linearGradient id="linear-gradient-36" x1="-245.26" y1="186.35" x2="-253.63" y2="200.35" gradientTransform="translate(619.08 -177.44) rotate(-41.33)" xlink:href="#linear-gradient-10"/><linearGradient id="linear-gradient-37" x1="-242.25" y1="188.55" x2="-250.62" y2="202.55" gradientTransform="translate(619.08 -177.44) rotate(-41.33)" xlink:href="#linear-gradient-10"/><linearGradient id="linear-gradient-38" x1="-236.69" y1="189.5" x2="-245.8" y2="191.8" gradientTransform="translate(619.08 -177.44) rotate(-41.33)" xlink:href="#linear-gradient-10"/><linearGradient id="linear-gradient-39" x1="-247.71" y1="177.5" x2="-256.83" y2="179.8" gradientTransform="translate(619.08 -177.44) rotate(-41.33)" xlink:href="#linear-gradient-10"/><linearGradient id="linear-gradient-40" x1="352.45" y1="381.88" x2="554.87" y2="102.79" gradientTransform="matrix(1, 0, 0, 1, 0, 0)" xlink:href="#linear-gradient-9"/><linearGradient id="linear-gradient-41" x1="265.61" y1="270.27" x2="237.88" y2="464.36" xlink:href="#linear-gradient-10"/><linearGradient id="linear-gradient-42" x1="3684.95" y1="64.29" x2="3657.23" y2="258.38" gradientTransform="matrix(-1, 0, 0, 1, 3985.11, 0)" xlink:href="#linear-gradient-10"/><linearGradient id="linear-gradient-43" x1="223.26" y1="612.54" x2="291.83" y2="164.12" xlink:href="#linear-gradient-10"/><linearGradient id="linear-gradient-44" x1="327.85" y1="628.69" x2="396.42" y2="180.24" xlink:href="#linear-gradient-10"/><linearGradient id="linear-gradient-45" x1="261.79" y1="618.39" x2="330.34" y2="170.11" xlink:href="#linear-gradient-10"/><linearGradient id="linear-gradient-46" x1="256.01" y1="633.87" x2="305.3" y2="327.38" xlink:href="#linear-gradient-10"/><linearGradient id="linear-gradient-47" x1="3564.67" y1="388.49" x2="3613.96" y2="82" gradientTransform="matrix(-1, 0, 0, 1, 3870.31, 0)" xlink:href="#linear-gradient-10"/><linearGradient id="linear-gradient-48" x1="305.66" y1="34.09" x2="229.25" y2="114.75" gradientTransform="matrix(1, 0, 0, 1, 0, 0)" xlink:href="#linear-gradient-9"/><linearGradient id="linear-gradient-49" x1="3651.29" y1="34.09" x2="3574.87" y2="114.75" gradientTransform="matrix(-1, 0, 0, 1, 3950.35, 0)" xlink:href="#linear-gradient-9"/><linearGradient id="linear-gradient-50" x1="237.8" y1="189.38" x2="76.76" y2="448.56" gradientTransform="matrix(1, 0, 0, 1, 0, 0)" xlink:href="#linear-gradient-9"/><linearGradient id="linear-gradient-51" x1="382.38" y1="9.11" x2="586.61" y2="-204.34" xlink:href="#linear-gradient-10"/><linearGradient id="linear-gradient-52" x1="357.11" y1="35.5" x2="318.77" y2="107.15" gradientTransform="matrix(1, 0, 0, 1, 0, 0)" xlink:href="#linear-gradient-7"/><linearGradient id="linear-gradient-53" x1="366.26" y1="8.42" x2="336.97" y2="60.55" gradientTransform="matrix(1, 0, 0, 1, 0, 0)" xlink:href="#linear-gradient-7"/><linearGradient id="linear-gradient-54" x1="313.7" y1="7.74" x2="284.4" y2="59.87" gradientTransform="matrix(1, 0, 0, 1, 0, 0)" xlink:href="#linear-gradient-7"/><linearGradient id="linear-gradient-55" x1="4601.85" y1="380.01" x2="4684.39" y2="380.01" gradientTransform="matrix(-1, 0, 0, 1, 5100.88, 0)" xlink:href="#linear-gradient-7"/><linearGradient id="linear-gradient-56" x1="3710.66" y1="-772.36" x2="3588.83" y2="-616.49" gradientTransform="matrix(-0.97, 0.25, 0.25, 0.97, 4055.18, 152.92)" xlink:href="#linear-gradient-23"/><linearGradient id="linear-gradient-57" x1="4666.55" y1="315.99" x2="4666.88" y2="315.99" gradientTransform="matrix(-1, 0, 0, 1, 5100.88, 0)" xlink:href="#linear-gradient-7"/><linearGradient id="linear-gradient-58" x1="4672.17" y1="315.77" x2="4672.13" y2="315.83" gradientTransform="matrix(-1, 0, 0, 1, 5100.88, 0)" gradientUnits="userSpaceOnUse"><stop offset="0" stop-color="#53eac9"/><stop offset="1" stop-color="#45aed8"/></linearGradient><linearGradient id="linear-gradient-59" x1="4698.68" y1="604.56" x2="4565.53" y2="749.39" gradientTransform="matrix(-1, 0, 0, 1, 5100.88, 0)" xlink:href="#linear-gradient-7"/><linearGradient id="linear-gradient-60" x1="4655.52" y1="615.12" x2="4667.34" y2="615.12" gradientTransform="matrix(-1, 0, 0, 1, 5100.88, 0)" xlink:href="#linear-gradient-23"/><linearGradient id="linear-gradient-61" x1="4709.96" y1="438.44" x2="4595.25" y2="593.9" gradientTransform="matrix(-1, 0, 0, 1, 5100.88, 0)" xlink:href="#linear-gradient-7"/><linearGradient id="linear-gradient-62" x1="4669.26" y1="576.66" x2="4535.1" y2="722.59" gradientTransform="matrix(-1, 0, 0, 1, 5100.88, 0)" xlink:href="#linear-gradient-7"/><linearGradient id="linear-gradient-63" x1="4612.92" y1="614.51" x2="4623.12" y2="614.51" gradientTransform="matrix(-1, 0, 0, 1, 5100.88, 0)" xlink:href="#linear-gradient-23"/><linearGradient id="linear-gradient-64" x1="4689.76" y1="423.6" x2="4575.26" y2="578.79" gradientTransform="matrix(-1, 0, 0, 1, 5100.88, 0)" xlink:href="#linear-gradient-7"/><linearGradient id="linear-gradient-65" x1="4599.96" y1="329.96" x2="4614.41" y2="322.31" gradientTransform="matrix(-1, 0, 0, 1, 5100.88, 0)" xlink:href="#linear-gradient-23"/><linearGradient id="linear-gradient-66" x1="604.46" y1="-333.7" x2="563" y2="-301.98" gradientTransform="matrix(-0.99, 0.14, 0.14, 0.99, 1080.07, 522.04)" xlink:href="#linear-gradient-23"/><linearGradient id="linear-gradient-67" x1="-3618.96" y1="-377.92" x2="-3543.21" y2="-280.4" gradientTransform="translate(4056.03 95.73) rotate(-8.15)" xlink:href="#linear-gradient-7"/><linearGradient id="linear-gradient-68" x1="599.37" y1="-340.44" x2="557.9" y2="-308.71" gradientTransform="matrix(-0.99, 0.14, 0.14, 0.99, 1080.07, 522.04)" xlink:href="#linear-gradient-23"/><linearGradient id="linear-gradient-69" x1="4784.37" y1="-3218.25" x2="4786.35" y2="-3203.35" gradientTransform="translate(5505.83 3075.3) rotate(-118.35)" xlink:href="#linear-gradient-7"/><linearGradient id="linear-gradient-70" x1="4572.41" y1="4016.73" x2="4609.96" y2="4016.73" gradientTransform="translate(6370.47 1735.78) rotate(151.65)" xlink:href="#linear-gradient-58"/><linearGradient id="linear-gradient-71" x1="4786.82" y1="-3213.48" x2="4779.8" y2="-3181.58" gradientTransform="translate(5505.83 3075.3) rotate(-118.35)" xlink:href="#linear-gradient-2"/><linearGradient id="linear-gradient-72" x1="4630.09" y1="-3848.03" x2="4638.1" y2="-3813.59" gradientTransform="translate(5505.83 3075.3) rotate(-118.35)" xlink:href="#linear-gradient-2"/><linearGradient id="linear-gradient-73" x1="4780.81" y1="-3197.64" x2="4789.04" y2="-3197.64" gradientTransform="translate(5505.83 3075.3) rotate(-118.35)" xlink:href="#linear-gradient-7"/><linearGradient id="linear-gradient-74" x1="4778.58" y1="-3175.17" x2="4791.49" y2="-3175.17" gradientTransform="translate(5505.83 3075.3) rotate(-118.35)" xlink:href="#linear-gradient-7"/><linearGradient id="linear-gradient-75" x1="4623.53" y1="-3861.31" x2="4631.71" y2="-3826.16" gradientTransform="translate(5505.83 3075.3) rotate(-118.35)" xlink:href="#linear-gradient-2"/><linearGradient id="linear-gradient-76" x1="4640.73" y1="377.58" x2="4672.32" y2="377.58" gradientTransform="matrix(-1, 0, 0, 1, 5100.88, 0)" xlink:href="#linear-gradient-23"/><linearGradient id="linear-gradient-77" x1="-2656.96" y1="344.88" x2="-2649.3" y2="344.88" gradientTransform="translate(3128.25)" xlink:href="#linear-gradient-7"/><linearGradient id="linear-gradient-78" x1="-2634.35" y1="361.74" x2="-2664.22" y2="389.84" gradientTransform="translate(3128.25)" xlink:href="#linear-gradient-2"/><linearGradient id="linear-gradient-79" x1="-2700.18" y1="323.77" x2="-2689.68" y2="323.77" gradientTransform="translate(3128.25)" xlink:href="#linear-gradient-7"/><linearGradient id="linear-gradient-80" x1="-2699" y1="310.73" x2="-2696.22" y2="366.45" gradientTransform="translate(3128.25)" xlink:href="#linear-gradient-2"/><linearGradient id="linear-gradient-81" x1="-2462.91" y1="-553.65" x2="-2458.19" y2="-553.65" gradientTransform="matrix(0.98, -0.21, 0.21, 0.98, 2959.31, 379.37)" xlink:href="#linear-gradient-2"/><linearGradient id="linear-gradient-82" x1="-2470.55" y1="-554.69" x2="-2465.83" y2="-554.69" gradientTransform="matrix(0.98, -0.21, 0.21, 0.98, 2959.31, 379.37)" xlink:href="#linear-gradient-2"/><linearGradient id="linear-gradient-83" x1="-2707.07" y1="339.27" x2="-2690.3" y2="339.27" gradientTransform="translate(3128.25)" xlink:href="#linear-gradient-7"/></defs><path class="cls-1" d="M602,434.54C538.55,584.69,371.17,649.19,240,638.19c-35.81-3-107.86-9-164.11-62.94-108-103.5-91.4-319.84,12-447.21C101.25,111.64,193.44,1.74,337.1,3.21c105.18,1.08,179,61.27,188,68.77A291.93,291.93,0,0,1,584,139.67C636.93,223.58,641.59,340.71,602,434.54Z"/><path class="cls-2" d="M618,161.73H341.68a9.21,9.21,0,0,1-9.12-9.25v-.25a9.21,9.21,0,0,1,9.12-9.25H618a9.22,9.22,0,0,1,9.13,9.25v.25A9.22,9.22,0,0,1,618,161.73Z"/><path class="cls-3" d="M617.66,253.55H341.31a9.22,9.22,0,0,1-9.13-9.25V244a9.21,9.21,0,0,1,9.13-9.24H617.66a9.21,9.21,0,0,1,9.13,9.24v.26A9.22,9.22,0,0,1,617.66,253.55Z"/><path class="cls-4" d="M618.33,347.6H342a9.21,9.21,0,0,1-9.13-9.24h0a9.22,9.22,0,0,1,9.13-9.25H618.33a9.22,9.22,0,0,1,9.13,9.25h0A9.21,9.21,0,0,1,618.33,347.6Z"/><path class="cls-5" d="M345,617.11h-1.76a9.22,9.22,0,0,1-9.13-9.25V146.17a9.22,9.22,0,0,1,9.13-9.25H345a9.21,9.21,0,0,1,9.12,9.25V607.86A9.21,9.21,0,0,1,345,617.11Z"/><path class="cls-6" d="M619.2,613.08h-1.76a9.22,9.22,0,0,1-9.13-9.25V142.15a9.22,9.22,0,0,1,9.13-9.25h1.76a9.22,9.22,0,0,1,9.13,9.25V603.83A9.22,9.22,0,0,1,619.2,613.08Z"/><path class="cls-7" d="M27.9,84.62,288.1,34a27.45,27.45,0,0,1,31.84,20.68l91.73,378.43A20.52,20.52,0,0,1,396.19,458L99,521.58a19.22,19.22,0,0,1-22.83-15.37l-73-384.63A31.55,31.55,0,0,1,27.9,84.62Z"/><path class="cls-8" d="M104.25,513a21.08,21.08,0,0,1-20.56-17.18L74,444.8a.77.77,0,0,1,.6-.9.75.75,0,0,1,.89.61l9.69,51a19.48,19.48,0,0,0,22.45,15.63l33.46-6.07a.77.77,0,0,1,.26,1.52l-33.45,6.06A20.64,20.64,0,0,1,104.25,513Z"/><path class="cls-8" d="M71.75,429.61A.76.76,0,0,1,71,429l-1.57-8.27a.76.76,0,1,1,1.5-.29l1.56,8.27a.77.77,0,0,1-.6.9Z"/><path class="cls-9" d="M28.11,81.37c36.46-2,161.51-10.74,261.05-38.27a8.37,8.37,0,0,1,10.34,6.13l93,380a9.77,9.77,0,0,1-7,11.81c-42,10.82-215.12,54.74-278.79,60.28a7.66,7.66,0,0,1-8.13-6.21L19.73,92.31A9.14,9.14,0,0,1,28.11,81.37Z"/><path class="cls-10" d="M33.8,90.58c35.09-2,155.44-10.33,251.22-36.82a8,8,0,0,1,10,5.9L384.45,425.3a9.39,9.39,0,0,1-6.71,11.36c-40.42,10.42-207,52.69-268.29,58a7.36,7.36,0,0,1-7.83-6L25.74,101.12A8.81,8.81,0,0,1,33.8,90.58Z"/><path class="cls-11" d="M62.8,123.43l18.66,78.5a5.07,5.07,0,0,0,5.74,3.86c14.55-2.41,59.88-10.08,85.1-16.38a5.73,5.73,0,0,0,4.23-6.46c-2.33-14.95-9.47-58.39-16.25-75.81a6.35,6.35,0,0,0-6.92-4L67.2,116.77A5.46,5.46,0,0,0,62.8,123.43Z"/><g class="cls-12"><path class="cls-8" d="M278.28,88.62a2.82,2.82,0,0,0,2.41-3.22,3,3,0,0,0-3.58-2.12l-94.29,16.6a2,2,0,0,0-1.46,3.19l.75,1.32a4.61,4.61,0,0,0,4.53,2.08Z"/></g><g class="cls-12"><path class="cls-8" d="M185.62,114.65a2,2,0,0,0-1.46,3.19l.76,1.31a4.57,4.57,0,0,0,4.52,2.08l91.64-17.85a2.81,2.81,0,0,0,2.41-3.22,3.05,3.05,0,0,0-3.58-2.11Z"/></g><g class="cls-12"><path class="cls-8" d="M188.46,129.63a2,2,0,0,0-1.46,3.19l.76,1.31a4.59,4.59,0,0,0,4.52,2.08l91.64-17.85a2.81,2.81,0,0,0,2.41-3.22,3.05,3.05,0,0,0-3.58-2.11Z"/></g><g class="cls-12"><path class="cls-8" d="M306.75,188.83a2.71,2.71,0,0,0,2.31-3.21,3.15,3.15,0,0,0-3.67-2.06L85.08,224.64c-1.65.31-2,1.46-.68,2.56l2.32,2a7.11,7.11,0,0,0,5.3,1.42Z"/></g><g class="cls-12"><path class="cls-8" d="M87.88,239.4c-1.65.31-1.95,1.46-.68,2.57l2.32,2a7.08,7.08,0,0,0,5.3,1.43l214.73-41.82a2.7,2.7,0,0,0,2.31-3.2,3.14,3.14,0,0,0-3.67-2.07Z"/></g><path class="cls-8" d="M107.81,294.39a5,5,0,0,1-4.89-3.42l-4.63-15.46a3.57,3.57,0,0,1,.32-2.76,4.19,4.19,0,0,1,2.59-2h0c1.54-.41,3.71-1,6-1.68,5.08-1.45,10.83-3.1,14.26-3.81A5.29,5.29,0,0,1,127.4,268c1.65,3.44,2.87,10.31,4.07,17.65a4.75,4.75,0,0,1-4,5.25l-18.59,3.44A6.2,6.2,0,0,1,107.81,294.39Zm14.84-27.7a4.38,4.38,0,0,0-.88.09c-3.38.7-9.36,2.41-14.16,3.78-2.3.66-4.47,1.28-6,1.69h0a2.69,2.69,0,0,0-1.66,1.25,2.06,2.06,0,0,0-.18,1.57l4.62,15.45a3.6,3.6,0,0,0,4.22,2.26l18.59-3.43a3.22,3.22,0,0,0,2.79-3.49c-1.18-7.22-2.37-14-3.94-17.23A3.7,3.7,0,0,0,122.65,266.69Z"/><g class="cls-12"><path class="cls-8" d="M142.15,271a2.26,2.26,0,0,0-1.67,3.36l1.59,3.36a4.11,4.11,0,0,0,4.3,2.16l168.06-34.58a3.06,3.06,0,0,0,2.35-3.63l-.21-1a3.13,3.13,0,0,0-3.62-2.44Z"/></g><path class="cls-13" d="M105.14,275.78h0a2.88,2.88,0,0,1,4.14.31L114.2,282a.93.93,0,0,0,1.62-.39L121,259.4a1,1,0,0,1,2,.06,41.61,41.61,0,0,1-6.27,30.39s-5.85-1.08-12.09-10A3.1,3.1,0,0,1,105.14,275.78Z"/><path class="cls-8" d="M115.45,334.68a5,5,0,0,1-4.89-3.43l-4.62-15.45a3.52,3.52,0,0,1,.31-2.76,4.19,4.19,0,0,1,2.59-2h0c1.54-.41,3.71-1,6-1.68,4.83-1.38,10.84-3.1,14.27-3.81a5.27,5.27,0,0,1,5.93,2.68c1.66,3.44,2.87,10.32,4.07,17.65a4.75,4.75,0,0,1-4,5.26l-18.59,3.44A6.41,6.41,0,0,1,115.45,334.68Zm-6.22-22.14a2.64,2.64,0,0,0-1.65,1.25,2,2,0,0,0-.19,1.56L112,330.81a3.59,3.59,0,0,0,4.21,2.26l18.59-3.43a3.22,3.22,0,0,0,2.79-3.49c-1.18-7.23-2.37-14-3.94-17.23a3.81,3.81,0,0,0-4.26-1.85c-3.37.7-9.35,2.41-14.16,3.78-2.3.66-4.47,1.28-6,1.69Z"/><path class="cls-14" d="M111.53,313.75c3.84-1,12.15-3.55,16.16-4.39a3.64,3.64,0,0,1,4.07,1.82c1.33,2.75,2.32,8.56,3.2,13.93a3.17,3.17,0,0,1-2.72,3.5l-14.85,2.74a3.48,3.48,0,0,1-4.06-2.23l-3.7-12.35A2.48,2.48,0,0,1,111.53,313.75Z"/><g class="cls-12"><path class="cls-8" d="M149.79,311.3a2.26,2.26,0,0,0-1.67,3.35l1.59,3.36a4.11,4.11,0,0,0,4.3,2.17L322.08,285.6a3.05,3.05,0,0,0,2.34-3.63l-.2-1a3.16,3.16,0,0,0-3.63-2.44Z"/></g><path class="cls-8" d="M123.1,375a5,5,0,0,1-4.89-3.43l-4.63-15.45a3.56,3.56,0,0,1,.32-2.76,4.16,4.16,0,0,1,2.59-2h0c1.54-.41,3.7-1,6-1.69,4.83-1.38,10.84-3.09,14.27-3.81a5.29,5.29,0,0,1,5.94,2.69c1.65,3.44,2.87,10.31,4.07,17.65a4.76,4.76,0,0,1-4,5.26l-18.59,3.43A5.33,5.33,0,0,1,123.1,375Zm14.84-27.71a4.38,4.38,0,0,0-.88.09c-3.38.7-9.36,2.41-14.16,3.79-2.3.65-4.47,1.27-6,1.69h0a2.7,2.7,0,0,0-1.65,1.25,2,2,0,0,0-.18,1.56l4.62,15.46a3.6,3.6,0,0,0,4.22,2.26l18.59-3.43a3.23,3.23,0,0,0,2.79-3.5c-1.18-7.22-2.37-14-3.94-17.22A3.71,3.71,0,0,0,137.94,347.26Z"/><path class="cls-14" d="M119.17,354c3.85-1,12.16-3.55,16.16-4.38a3.66,3.66,0,0,1,4.08,1.82c1.32,2.75,2.32,8.56,3.2,13.93a3.19,3.19,0,0,1-2.72,3.5L125,371.64a3.49,3.49,0,0,1-4.06-2.23l-3.69-12.35A2.49,2.49,0,0,1,119.17,354Z"/><g class="cls-12"><path class="cls-8" d="M157.44,351.59a2.25,2.25,0,0,0-1.67,3.35l1.59,3.36a4.12,4.12,0,0,0,4.3,2.17l168.06-34.58a3.06,3.06,0,0,0,2.35-3.63l-.21-1a3.15,3.15,0,0,0-3.63-2.44Z"/></g><path class="cls-8" d="M130.74,415.26a5,5,0,0,1-4.89-3.43l-4.62-15.45a3.52,3.52,0,0,1,.31-2.76,4.15,4.15,0,0,1,2.59-2c1.54-.42,3.71-1,6-1.69,4.83-1.38,10.84-3.09,14.27-3.81a5.28,5.28,0,0,1,5.93,2.69c1.66,3.44,2.87,10.31,4.07,17.65a4.75,4.75,0,0,1-4,5.26l-18.59,3.43A5.51,5.51,0,0,1,130.74,415.26Zm14.84-27.71a4.46,4.46,0,0,0-.88.09c-3.37.7-9.36,2.41-14.16,3.79-2.3.65-4.47,1.27-6,1.69h0a2.61,2.61,0,0,0-1.65,1.25,2,2,0,0,0-.19,1.56l4.63,15.45a3.59,3.59,0,0,0,4.21,2.27l18.59-3.44a3.22,3.22,0,0,0,2.79-3.49c-1.18-7.22-2.37-14-3.94-17.22A3.69,3.69,0,0,0,145.58,387.55Z"/><path class="cls-14" d="M126.82,394.32c3.84-1,12.15-3.55,16.16-4.38a3.65,3.65,0,0,1,4.07,1.81c1.33,2.76,2.32,8.57,3.2,13.94a3.16,3.16,0,0,1-2.72,3.49l-14.85,2.75a3.48,3.48,0,0,1-4.06-2.24l-3.7-12.35A2.49,2.49,0,0,1,126.82,394.32Z"/><g class="cls-12"><path class="cls-8" d="M165.08,391.88a2.26,2.26,0,0,0-1.67,3.35l1.59,3.36a4.1,4.1,0,0,0,4.3,2.16l168.07-34.58a3,3,0,0,0,2.34-3.62l-.2-1a3.15,3.15,0,0,0-3.63-2.44Z"/></g><path class="cls-15" d="M112.17,192.73,146,187.42a4,4,0,0,0,2.77-5.92,145.67,145.67,0,0,1-8.48-16.81,3.91,3.91,0,0,0-4.19-2.35l-24.9,3.91a4,4,0,0,0-3.28,4.39,77.43,77.43,0,0,1-.18,17.7A3.94,3.94,0,0,0,112.17,192.73Z"/><path class="cls-16" d="M100.66,127.1c-5.66,5-10.57,9.9-13.54,14.3a9.31,9.31,0,0,0-.54,12.14l6.3,8a13.17,13.17,0,0,1,2.78,7.05l1,12.11a2.85,2.85,0,0,0,5,1.71c4.45-2.39,7.5-6.19,9.73-10.8Z"/><path class="cls-17" d="M138.91,121.09c6.9,3.07,13,6.2,17.18,9.48a9.27,9.27,0,0,1,4.14,11.4l-3.62,9.54a13.13,13.13,0,0,0-.54,7.57l2.67,11.84a2.87,2.87,0,0,1-4.22,3.16c-5-.92-9-3.61-12.5-7.32Z"/><path class="cls-18" d="M143.37,129.85c-1.66-10.79-13.22-17.94-25.84-15.95S96,126.23,97.68,137a17.62,17.62,0,0,0,5.17,9.93,12.33,12.33,0,0,1,3.67,10,14.67,14.67,0,0,0,.09,3.62c1.41,9.17,10.11,15.71,22,13.56,12.17-2.22,18.27-10.49,16.87-19.66A14.67,14.67,0,0,0,142.7,148a7.8,7.8,0,0,1-.84-8A17.7,17.7,0,0,0,143.37,129.85Z"/><path class="cls-19" d="M108.5,117.36c6.73,9.21,15.45,23.17,13.87,33.57-.26,1.71-.34,3.44-1.84,4.53-3.9,2.82-7.08,6-8.28,8.7-1,2.11-1.89,4.75-.21,6.34,3.24,3.06,7.57,4.29,12.78,4a3.57,3.57,0,0,0,2.7-1.41,5.39,5.39,0,0,0,1-3.53.07.07,0,0,1,.14,0,5.28,5.28,0,0,0,.56,1.37,4.74,4.74,0,0,0,5.57,1.42c5.35-2.13,6.44-3.89,8.81-7.24,1.1-1.55-.19-4.86-1.35-6.31-2-2.52-4.51-3.73-11-5.29a4.6,4.6,0,0,1-3.17-3c-3-7.79-2.06-23.58-.42-35.9C120.06,112.35,112.76,115,108.5,117.36Z"/><path class="cls-20" d="M131.27,157.52c.18,1.16-3.25,3.48-4.41,3.78-1,.25-5.16-1.08-5.34-2.25s1.86-2.45,4.55-2.87S131.1,156.35,131.27,157.52Z"/><path class="cls-21" d="M133.77,136a1.93,1.93,0,1,1-2.2-1.63A2,2,0,0,1,133.77,136Z"/><path class="cls-22" d="M115.64,138.56a1.92,1.92,0,1,1-2.19-1.63A1.93,1.93,0,0,1,115.64,138.56Z"/><path class="cls-23" d="M164.25,4C153.59-.76,145.45,1,140,3.81a11.88,11.88,0,0,0-5.83,13.8l7.68,27,30-3.09S185.15,13.44,164.25,4ZM155.46,28.7a7.5,7.5,0,0,1-8.77-6,7.59,7.59,0,0,1,5.94-8.89,7.51,7.51,0,0,1,8.78,6A7.59,7.59,0,0,1,155.46,28.7Z"/><path class="cls-10" d="M142.5,32.5a.76.76,0,0,1-.73-.56l-1.23-4.29a.77.77,0,0,1,.52-.95.75.75,0,0,1,.94.52l1.23,4.29a.79.79,0,0,1-.52,1Zm-2.4-8.41a.76.76,0,0,1-.73-.56l-.93-3.26A11.38,11.38,0,0,1,144,7.08a22.12,22.12,0,0,1,10.72-2.56.77.77,0,0,1,.75.78.76.76,0,0,1-.76.76h0a20.73,20.73,0,0,0-10,2.39,9.84,9.84,0,0,0-4.81,11.4l.93,3.25a.78.78,0,0,1-.52,1A.76.76,0,0,1,140.1,24.09Z"/><path class="cls-24" d="M104.94,70.14l-2.61-13.79a8.56,8.56,0,0,1,7-10.09l94.49-15a8.23,8.23,0,0,1,9.25,6.17l3.3,13.11Z"/><path class="cls-10" d="M132.54,47.15a.76.76,0,0,1-.74-.62.78.78,0,0,1,.6-.91l4-.78a.77.77,0,0,1,.29,1.51l-4,.79Z"/><path class="cls-10" d="M109.07,64.87a.77.77,0,0,1-.75-.63l-1.06-5.58a8,8,0,0,1,6.26-9.36l14.84-2.89a.77.77,0,0,1,.89.61.78.78,0,0,1-.6.91l-14.84,2.89a6.46,6.46,0,0,0-5.06,7.55L109.81,64a.78.78,0,0,1-.6.91Z"/><path class="cls-25" d="M74.57,70.82l164.15-32a12.33,12.33,0,0,1,13.89,7.87l.3.78A10.77,10.77,0,0,1,245,61.86L76.57,94.65a6.91,6.91,0,0,1-8.13-5.87l-1.08-7.71A9.11,9.11,0,0,1,74.57,70.82Z"/><path class="cls-10" d="M.76,525.07a.86.86,0,0,1-.2-1.66c13.6-4.83,64.4-19.48,120.37,7.43,51.22,24.62,83.16,50.39,94.67,60.47a4,4,0,0,1-1.24,6.76c-16.76,6.12-64.59,20.77-96.22,2.22C80.34,578.13,43.59,529.78.76,525.07Z"/><path class="cls-26" d="M49.44,529.46s49.68-4.25,163,63.87C212.42,593.33,95,531,49.44,529.46Z"/><path class="cls-27" d="M253.7,583.38s-98-157.16-214.82-220.3c-7.86-4.24-17.66,2-17.27,11C24.28,434.21,49.4,610.63,253.7,583.38Z"/><path class="cls-26" d="M232.59,578.52a.51.51,0,0,1-.39.93c-21.95-6.61-111.25-45.66-178-163.13-.21-.38.34-.75.59-.39C73,442.18,143.6,537.76,232.59,578.52Z"/><path class="cls-10" d="M455.33,144.43c-8,1-15.29,1.24-21.36,0a6.55,6.55,0,0,1-6.49-6.58v-61c0-7.77,34.34-7.46,34.34,0v61A6.55,6.55,0,0,1,455.33,144.43Z"/><path class="cls-27" d="M455.33,141.76a64.61,64.61,0,0,1-21,0,6.9,6.9,0,0,1-6.85-6.94V78.29a69.2,69.2,0,0,0,34.34,0v56.89A6.54,6.54,0,0,1,455.33,141.76Z"/><path class="cls-28" d="M457.29,127.42a99.48,99.48,0,0,1-26,0,2.55,2.55,0,0,1-2.53-2.56v-33a2.55,2.55,0,0,1,2.53-2.56c9.18,1,18,1.27,26,0a2.54,2.54,0,0,1,2.52,2.56v33A2.54,2.54,0,0,1,457.29,127.42Z"/><path class="cls-27" d="M443.9,73.33s-5,.39-5-2.55V60.21a5.34,5.34,0,0,1,5.28-5.35h0a5.33,5.33,0,0,1,5.28,5.35V70.78C449.44,73.72,446.8,73.33,443.9,73.33Z"/><path class="cls-29" d="M449.07,60.64a28.39,28.39,0,0,1-9.69,0A1.62,1.62,0,0,1,437.76,59V51.32a2.08,2.08,0,0,1,2.07-2.1H448a2.92,2.92,0,0,1,2.9,2.94v6.61A1.85,1.85,0,0,1,449.07,60.64Z"/><path class="cls-10" d="M492.37,145.54c-8,1.05-15.29,1.25-21.36,0a6.55,6.55,0,0,1-6.49-6.57V78c0-7.77,34.34-7.47,34.34,0v61A6.55,6.55,0,0,1,492.37,145.54Z"/><path class="cls-27" d="M492.37,142.87a64.61,64.61,0,0,1-21,0,6.89,6.89,0,0,1-6.85-6.94V79.4a69,69,0,0,0,34.34,0v56.9A6.53,6.53,0,0,1,492.37,142.87Z"/><path class="cls-28" d="M494.33,128.53a99,99,0,0,1-26,0,2.54,2.54,0,0,1-2.53-2.55V93a2.54,2.54,0,0,1,2.53-2.55c9.18,1,18,1.27,26,0A2.54,2.54,0,0,1,496.85,93v33A2.54,2.54,0,0,1,494.33,128.53Z"/><path class="cls-27" d="M480.94,74.45s-5,.39-5-2.55V61.33A5.33,5.33,0,0,1,481.2,56h0a5.32,5.32,0,0,1,5.28,5.35V71.9C486.48,74.84,483.84,74.45,480.94,74.45Z"/><path class="cls-29" d="M486.11,61.76a28.65,28.65,0,0,1-9.69,0,1.63,1.63,0,0,1-1.62-1.65V52.43a2.08,2.08,0,0,1,2.07-2.1h8.18a2.93,2.93,0,0,1,2.9,3v6.6A1.86,1.86,0,0,1,486.11,61.76Z"/><path class="cls-30" d="M565.78,110.84c5.85,23,13,44.43,22.16,63.25,4.92,10.66,21.48,5.14,14.1-6.34,6,11.11,21.93,5.66,15-6.58,7.61,11.56,19.92,2.27,11.86-8.16-19.4-12.86-36.19-29.28-51.25-48.06Z"/><path class="cls-31" d="M548,14.16l-8,90.27c-.68,7.79,4.12,15.15,12,18.1a38.12,38.12,0,0,0,24.72.33c7.73-2.67,12.54-9.81,11.86-17.4l-8.14-91a13,13,0,0,0-1-4C573.48-2.95,555-5.26,548,14.16Z"/><path class="cls-32" d="M582.24,41.51c9,20,15.46,42.33,20.19,66.17A6.92,6.92,0,0,1,593,115.5c-20.29-8.78-31.86-32.35-26.66-71.25a6.94,6.94,0,0,1,.86-2.55c2.33-4.09,5.78-5.68,11-3.91A6.89,6.89,0,0,1,582.24,41.51Z"/><path class="cls-33" d="M584.3,105.15a37,37,0,0,1-9.87-5.58A41.26,41.26,0,0,0,593,115.5a6.92,6.92,0,0,0,9.42-7.82c-.18-.87-.35-1.74-.53-2.61C596.34,107.87,590,107.21,584.3,105.15Z"/><path class="cls-34" d="M599.51,95.4a34.71,34.71,0,0,1-18.91-1c-4.87-1.71-8.59-4.59-12.19-8.07a53.45,53.45,0,0,0,6,13.26,37,37,0,0,0,9.87,5.58c5.69,2.06,12,2.72,17.6-.08-.67-3.27-1.38-6.52-2.12-9.73Z"/><path class="cls-35" d="M580.6,94.38a34.71,34.71,0,0,0,18.91,1l.27-.06c-.7-3.07-1.44-6.12-2.21-9.13a20.19,20.19,0,0,1-2.87.8,22.85,22.85,0,0,1-11.41-.45c-4.7-1.36-8.51-4.31-11.86-7.82-4.13-4.48-5.29-10.53-6.32-16.53a83.36,83.36,0,0,0,3.3,24.1C572,89.79,575.73,92.67,580.6,94.38Z"/><path class="cls-36" d="M548.61,13.35c12.31-9.25,18.8-6.2,21.56,4.73a10.45,10.45,0,0,1-7.48,12.66L550,34Z"/><path class="cls-37" d="M526.14,34.52c7.2,1.51,15,1.42,23.17.33a2.43,2.43,0,0,0,2.08-2.58l-.82-12.94C538.89,22.68,531.18,28,526.14,34.52Z"/><path class="cls-38" d="M547.22,13.32c-17.7.62-21.78,6.87-21.78,22.34,10.92-11,17.57-12.2,25.95-3.39.68-5.37,1.26-11.58-.16-16.11A4.05,4.05,0,0,0,547.22,13.32Z"/><ellipse class="cls-39" cx="560.11" cy="18.58" rx="2.34" ry="2.37"/><path class="cls-29" d="M577.1,137.78v-3.67H530.65v3.67c0,2.33-2,4.32-4.73,5.85-3.84,2.15-6.14,4.86-5.77,7.34v74c0,5.05,6.4,9.15,14.3,9.15H573.3c7.9,0,14.3-4.1,14.3-9.15V151c0-3-2.27-5.67-5.77-7.34C578.91,142.24,577.1,140.11,577.1,137.78Z"/><path class="cls-27" d="M573.41,137.78v-3.67H530v3.67c0,2.33-1.7,4.46-4.42,5.85-3.28,1.67-5.4,4.34-5.4,7.34v74c0,5.05,6,9.15,13.37,9.15h36.36c7.38,0,13.37-4.1,13.37-9.15V151c0-3-2.12-5.67-5.4-7.34C575.1,142.24,573.41,140.11,573.41,137.78Z"/><path class="cls-40" d="M519.77,154.79v68.56c0,4.31,6,7.8,13.48,7.8h36.66c7.44,0,13.48-3.49,13.48-7.8V154.79c0-.25-6-4.43-6.08-4.67H525C525,150.36,519.77,154.54,519.77,154.79Z"/><path class="cls-41" d="M587.6,201.87q-33.58,1.38-67.47,0V162.94q33.4,1.17,67.47,0Z"/><rect class="cls-42" x="524.49" y="123.83" width="58.74" height="13.72" rx="1.56"/><path class="cls-29" d="M577.47,129H533.09a1.16,1.16,0,0,1-1.16-1.17v-.55a1.16,1.16,0,0,1,1.16-1.17h44.38a1.16,1.16,0,0,1,1.16,1.17v.55A1.16,1.16,0,0,1,577.47,129Z"/><path class="cls-29" d="M580.52,200.47q-26.74,1-53.7,0c-2.22-.08-4-1.37-4-2.93v-29.7c0-1.67,2-3,4.36-2.93q26.24.78,52.91,0c2.37-.07,4.35,1.26,4.35,2.93v29.71C584.49,199.11,582.74,200.39,580.52,200.47Z"/><path class="cls-43" d="M539.22,139.46a.83.83,0,0,1-.41.2.87.87,0,0,1-1-.7c-1.8-9.29.31-14.81,6.45-16.88a.87.87,0,0,1,1.11.56.89.89,0,0,1-.56,1.12c-5.22,1.76-6.9,6.49-5.28,14.86A.9.9,0,0,1,539.22,139.46Z"/><path class="cls-44" d="M542.39,139.54a.83.83,0,0,1-.41.2.88.88,0,0,1-1-.7c-1.79-9.29.32-14.81,6.46-16.88a.86.86,0,0,1,1.1.56.87.87,0,0,1-.55,1.12c-5.23,1.76-6.91,6.49-5.29,14.86A.89.89,0,0,1,542.39,139.54Z"/><path class="cls-45" d="M546.1,139.21a.83.83,0,0,1-.41.2.89.89,0,0,1-1-.7c-1.79-9.29.32-14.81,6.46-16.88a.87.87,0,0,1,1.11.56.89.89,0,0,1-.56,1.12c-5.22,1.76-6.9,6.48-5.29,14.86A.88.88,0,0,1,546.1,139.21Z"/><path class="cls-46" d="M553.94,141a.85.85,0,0,1-.41.21.88.88,0,0,1-1-.7c-1.79-9.3.32-14.82,6.45-16.89a.89.89,0,0,1,.56,1.69c-5.23,1.76-6.91,6.48-5.29,14.85A.91.91,0,0,1,553.94,141Z"/><path class="cls-47" d="M557.1,141.08a.85.85,0,0,1-.41.21.87.87,0,0,1-1-.7c-1.8-9.3.31-14.82,6.45-16.89a.88.88,0,0,1,1.11.57.9.9,0,0,1-.56,1.12c-5.22,1.76-6.9,6.48-5.28,14.85A.89.89,0,0,1,557.1,141.08Z"/><path class="cls-48" d="M560.82,140.75a1.07,1.07,0,0,1-.41.21.88.88,0,0,1-1-.7c-1.8-9.3.32-14.82,6.45-16.89a.88.88,0,0,1,1.11.56.9.9,0,0,1-.55,1.13c-5.23,1.76-6.91,6.48-5.29,14.85A.91.91,0,0,1,560.82,140.75Z"/><path class="cls-49" d="M555.44,125l12.48,1.33,4.3-1.19C565.13,121.9,559.88,122.58,555.44,125Z"/><path class="cls-50" d="M539.23,123.24l12.49,1.33,4.3-1.18C548.93,120.17,543.68,120.85,539.23,123.24Z"/><path class="cls-29" d="M591.91,333.06c-6.51.85-12.42,1-17.35,0a5.32,5.32,0,0,1-5.27-5.34V278.18c0-6.31,27.89-6.07,27.89,0v49.54A5.32,5.32,0,0,1,591.91,333.06Z"/><path class="cls-51" d="M591.91,330.89a52.5,52.5,0,0,1-17.06,0,5.6,5.6,0,0,1-5.56-5.63V279.34a56.16,56.16,0,0,0,27.89,0v46.21A5.31,5.31,0,0,1,591.91,330.89Z"/><path class="cls-29" d="M593.5,319.24a80.08,80.08,0,0,1-21.15,0,2.06,2.06,0,0,1-2.05-2.07V290.38a2.06,2.06,0,0,1,2.05-2.07,80.43,80.43,0,0,0,21.15,0,2.06,2.06,0,0,1,2,2.07v26.79A2.06,2.06,0,0,1,593.5,319.24Z"/><path class="cls-27" d="M582.62,275.31s-4.07.32-4.07-2.07v-8.59a4.33,4.33,0,0,1,4.29-4.34h0a4.32,4.32,0,0,1,4.28,4.34v8.59C587.12,275.63,585,275.31,582.62,275.31Z"/><path class="cls-29" d="M586.82,265a22.85,22.85,0,0,1-7.87,0,1.32,1.32,0,0,1-1.32-1.33v-6.24a1.71,1.71,0,0,1,1.69-1.71H586a2.38,2.38,0,0,1,2.36,2.39v5.37A1.51,1.51,0,0,1,586.82,265Z"/><path class="cls-10" d="M320.34,601.24S446,381.44,602.3,289c10.51-6.21,24.22,1.75,24.14,14.05C625.91,385.38,600.72,627.62,320.34,601.24Z"/><path class="cls-26" d="M348.92,593.48a.69.69,0,0,0,.57,1.25c29.63-10.18,149.56-68.25,234.67-232.2.27-.52-.51-1-.83-.5C559.81,398.85,468.33,533.11,348.92,593.48Z"/><path class="cls-52" d="M221.86,604.76c-14.1-15.78-61-116.29-72.24-193.3C144.78,378.29,167,349.3,192.17,356c75.17,20.07,144.45,13.37,229.33-7.43,22.23-5.44,50.51,36,45.69,65.09-11.06,66.64-44.27,125-74.07,191.08Z"/><path class="cls-53" d="M187.71,603.53c13.52-27.07,38.16-30.6,58.43-2.1a10.42,10.42,0,0,1-4.69,15.81c-17.66,6.57-40.49,4.7-50.71-2A9.13,9.13,0,0,1,187.71,603.53Z"/><path class="cls-54" d="M408.37,609.69c-13.53-27.07-38.17-30.6-58.44-2.1a10.41,10.41,0,0,0,4.69,15.8c17.67,6.58,40.49,4.7,50.71-2A9.12,9.12,0,0,0,408.37,609.69Z"/><path class="cls-55" d="M285,614.26H243.48c13.21-45.79-47.2-174.11-42.07-264.52l68.42-16.07C277.41,446.67,287.94,582.41,285,614.26Z"/><path class="cls-56" d="M323.79,618.3h30.09a5.35,5.35,0,0,0,5.22-6.17c-7.19-50.7,42.68-154.6,43.28-243.06L339.72,338.6a5.3,5.3,0,0,0-6.08,4.92c-7.19,106.49-16.71,231-15.13,269.67A5.31,5.31,0,0,0,323.79,618.3Z"/><path class="cls-57" d="M402.24,366.52c1.09,9.06-4.48,19.27-12.46,22.65-57.95,24.58-112.47,21.1-172.51-1.19-10.55-3.91-15.63-15-15.93-26.89-2-77.84,48.87-135.92,47.08-214.67h92.26C360.57,231,387,239.55,402.24,366.52Z"/><path class="cls-58" d="M228.24,617.75c13.52-27.07,38.16-30.6,58.43-2.1a10.41,10.41,0,0,1-4.69,15.8c-17.67,6.58-40.49,4.7-50.71-2A9.13,9.13,0,0,1,228.24,617.75Z"/><path class="cls-59" d="M373.78,623.39c-13.53-27.06-38.17-30.59-58.44-2.1A10.43,10.43,0,0,0,320,637.1c17.67,6.58,40.49,4.7,50.72-2A9.13,9.13,0,0,0,373.78,623.39Z"/><path class="cls-60" d="M246.79,30.65C228.56,42.43,212.51,54,202.17,65.2a26.68,26.68,0,0,0-6.8,34.2l14.42,25.43a37.8,37.8,0,0,1,4.8,21.24l-2.44,34.8a8.21,8.21,0,0,0,13.34,7.07c13.67-4.8,24-14.23,32.3-26.32Z"/><path class="cls-61" d="M357.93,30.65C376.17,42.43,392.21,54,402.56,65.2a26.68,26.68,0,0,1,6.79,34.2l-14.41,25.43a37.72,37.72,0,0,0-4.8,21.24l2.43,34.8a8.21,8.21,0,0,1-13.33,7.07c-13.68-4.8-24-14.23-32.3-26.32Z"/><path class="cls-62" d="M366.77,57.49C366.77,26.13,337.06.7,300.4.7S234,26.13,234,57.49A50.73,50.73,0,0,0,244.39,88a35.4,35.4,0,0,1,6,30.11,41.63,41.63,0,0,0-1.29,10.32c0,26.65,21.85,49.1,56.4,48.25,35.51-.87,56.4-21.6,56.4-48.25A42.26,42.26,0,0,0,357,108.67a22.42,22.42,0,0,1,1.07-23.08A50.35,50.35,0,0,0,366.77,57.49Z"/><path class="cls-63" d="M273.27,6.51C288.36,35.63,307.05,79.14,298.05,108c-1.48,4.74-2.46,9.6-7.19,12-12.31,6.28-22.7,14-27.27,21-3.61,5.55-7.43,12.63-3.34,17.9,7.85,10.12,19.61,15.52,34.52,17a10.36,10.36,0,0,0,8.28-2.79,15.66,15.66,0,0,0,4.27-9.6.2.2,0,0,1,.39,0,16.55,16.55,0,0,0,1,4.14c2.64,5.2,9.08,7.88,15.2,6.49,16.12-3.65,20-8.15,28.13-16.59,3.8-3.93,1.6-13.89-1.07-18.52-4.63-8-11.18-12.6-29-19.93-4.41-1.82-6.75-5.76-7.68-10.07-5-23.43,4.41-67.82,14.4-102C308.25-2.57,286.37,1.65,273.27,6.51Z"/><path class="cls-64" d="M320.45,130.6c0,3.39-10.75,8.42-14.17,8.76-2.85.29-14.18-5.37-14.18-8.76s6.35-6.12,14.18-6.12S320.45,127.22,320.45,130.6Z"/><ellipse class="cls-65" cx="331.37" cy="70.52" rx="5.53" ry="5.6"/><ellipse class="cls-66" cx="278.8" cy="69.83" rx="5.53" ry="5.6"/><path class="cls-67" d="M421.74,350.89a.42.42,0,0,1,.09.11h0a.55.55,0,0,1,.1.29h0v.13a2.15,2.15,0,0,0,.05.47V352c.44,2.64,2.88,9.87,5.49,19.23a2.17,2.17,0,0,1,.07.24c5.87,21,14.35,52.08,16.91,66.71A72.07,72.07,0,0,0,456,441h0c10.18,2.83,25.54,4.83,39.82,1,0,0,7.94-61.65-1.36-116.68,0,0-24.67-7.61-51-9.29l-.41-.05c-2.12-.12-4.25-.21-6.39-.21H435c-.24,0-13.83,6.27-15.14,7.4C419.86,323.26,411.15,349.56,421.74,350.89Z"/><path class="cls-10" d="M409,330.61c-9.87,13.17-22.33,33.89-48.88,36.74-8.51.91-18.45,0-30.23-3.6l-9.66-2.38s-2,9.66,20.19,16.2a79.91,79.91,0,0,0,20.37,6.71c18.94,3.64,47.12,2.12,66.82-29.68l8.8-38.39S422,313.21,409,330.61Z"/><path class="cls-68" d="M298.34,380a6.57,6.57,0,0,1,2.62-5l15.4-11.54s-.32-2.3-4.6-2.8-4.5-5.15-4.5-5.15,5.95,1.06,14.73,2.91a18.77,18.77,0,0,1,10.62,6.95l-2.91,7.06a80.57,80.57,0,0,1-31.49,11Z"/><path class="cls-69" d="M434,316h.26l.07,0Z"/><path class="cls-70" d="M428.66,315.71l0,0v0Z"/><path class="cls-71" d="M444.23,615.16s1.38,7.9,2,15.73a5.37,5.37,0,0,1-5.09,5.84c-10.28.43-32.28,1.27-40.18.92a1.76,1.76,0,0,1-1.52-2.41h0a3.86,3.86,0,0,1,2-2.11l36.34-16.92Z"/><path class="cls-72" d="M445.36,610.51,444.25,620s-6.36,3-10.71-.38l2.63-10.54Z"/><path class="cls-73" d="M444.53,432.75c.48,2.47,2.56,123.22-10.18,177.33a1.86,1.86,0,0,0,1.07,2.14,31.25,31.25,0,0,0,10.37,2.13,3.12,3.12,0,0,0,3.1-2.27c3.64-12.55,21.09-75.45,23.37-135.54,2.54-67.14,0-2.29,0-2.29l-1.49-41.5Z"/><path class="cls-74" d="M486,619.28s2.19,4,4.32,14.59a3.29,3.29,0,0,1-2.86,3.94c-3.4.34-8.63.78-12.81.75a3.27,3.27,0,0,1-3.21-3.66c.46-3.87,1.91-10.22,6.37-15.17Z"/><path class="cls-75" d="M488,607.12l-2.58,14.3s-2.56,1.93-7.62.53L479,606.56Z"/><path class="cls-76" d="M495,436.46c10.42,63.71-2.26,157.46-6.53,175.8a2.84,2.84,0,0,1-2.28,2.18,18.76,18.76,0,0,1-8.15-.33,2.62,2.62,0,0,1-1.86-2.42c-.58-14.83.45-105.9-9.25-141.89a8.19,8.19,0,0,0-3.12-4.51l-18.84-13.58-1.45-21.93Z"/><path class="cls-8" d="M482.26,354.69l12-30.64s29.17,20.08,34,45.54a68.25,68.25,0,0,0-25.35,6.88C500.69,364.45,482.26,354.69,482.26,354.69Z"/><path class="cls-77" d="M460.19,290.07l9.93,29.1a1.06,1.06,0,0,1-.47,1.27c-2.71,1.51-12.46,5.9-24.22-1.65a5,5,0,0,1-2.25-3.53L440,290.07Z"/><path class="cls-8" d="M479.05,320.78l-11.86-10.2-17.74,43.86,12.94,174.32L502.77,530a1,1,0,0,0,.76-.3,1,1,0,0,0,.3-.78L498.2,361.2s-.16-36.24-4-37.15S479.05,320.78,479.05,320.78Z"/><path class="cls-10" d="M421.9,351l.05.29h0v.13l.05.47.32.08,3.63,34.61v0L439.72,531c0,.29,0,.55.2.73a.82.82,0,0,0,.7.2l21.81-3.19-6.37-86.68V442l-6.6-89.76-6-36.05h0l-.91-5.55-5.87,5.23h-.09l-1.69.09-.69,0c-1.08.29-5.53,2-5.53,2s-1.55.7-2.3,1.06l-.08.05-.66.35s.48,0,.44.06a.9.9,0,0,0-.56.84v0l-3,30.57-.34.11Z"/><polygon class="cls-27" points="441.88 354.09 441.88 358.35 426.33 357.41 426.33 352.67 441.88 354.09"/><path class="cls-10" d="M450.41,364.49a.38.38,0,0,1-.18-.72l13.46-7.32,1.88-12.85a.39.39,0,0,1,.31-.32l5-.91,5.19-17.08a.38.38,0,0,1,.48-.25.39.39,0,0,1,.25.48l-5.26,17.3a.38.38,0,0,1-.29.27l-5,.9-1.87,12.76a.36.36,0,0,1-.19.28l-13.63,7.42A.39.39,0,0,1,450.41,364.49Z"/><path class="cls-8" d="M447.17,360.24a.3.3,0,0,1-.25-.14l-7.2-12.8a.27.27,0,0,1,0-.19l1.17-7.09-5.76-3.1a.28.28,0,0,1-.15-.27l1.48-20.86a.28.28,0,0,1,.3-.27.3.3,0,0,1,.27.31l-1.47,20.67,5.78,3.11a.3.3,0,0,1,.14.3l-1.18,7.19,7.16,12.71a.29.29,0,0,1-.11.4A.32.32,0,0,1,447.17,360.24Z"/><path class="cls-8" d="M456.74,382.61s32.74,18.75,43.79,2.74a12.67,12.67,0,0,0,2.28-9.78,68.34,68.34,0,0,1,25.36-6.88,35.57,35.57,0,0,1-3.77,24.08c-19.36,35.87-72-2-72-2Z"/><path class="cls-10" d="M487.56,391.88c-9.93,0-22.52-4.86-23.21-5.13-.17-.06-4.52-1.59-6.17-4.84a.39.39,0,0,1,.17-.52.39.39,0,0,1,.51.17c1.5,3,5.7,4.45,5.75,4.47.23.09,21.78,8.4,30.53,3.54a.37.37,0,0,1,.51.15.38.38,0,0,1-.15.53A16.62,16.62,0,0,1,487.56,391.88Z"/><path class="cls-10" d="M499.38,408.58h0c-25.14-.87-39.5-12.58-39.65-12.7a.39.39,0,0,1,0-.54.37.37,0,0,1,.54,0c.14.11,14.32,11.65,39.19,12.52a.4.4,0,0,1,.37.4A.38.38,0,0,1,499.38,408.58Z"/><path class="cls-78" d="M434,262.47s-4.79,17.66-4,26.45-.3,14.72,9.9,15S457.7,298,461,288.68c0,0,5.23-14.42,2.86-19.67S434,262.47,434,262.47Z"/><path class="cls-79" d="M474.62,263.45c-2.17-1.37-3.59-.89-4.42-.2a.67.67,0,0,1-.75.08c0-.26-1.67-18.3-25.95-15.13a6.24,6.24,0,0,1-6.25-3.16c-2.87-5.12-8.32-12.65-12.43-5.29-5.85,10.46-7.59,24.2,9,27,1,.17,2,.31,3,.41,6.84,1.71,14.63,2.25,17.52,3,4.82,1.23,1.13,12.6,1.13,12.6l1.26-.18,2.69-.39c.39-.06.76.39.8.79l.62,7.77a.74.74,0,0,0,.62.67c1.22.14,4.4,0,9.3-3.62s2.48-5.36,1-6.05a.69.69,0,0,1-.19-1.09C478.07,273.49,478.4,265.84,474.62,263.45Z"/><path class="cls-80" d="M456.64,284.57s1.23-11,6.35-8.72-.76,12.25-4.48,13.19Z"/><path class="cls-10" d="M429.5,263.46a.33.33,0,0,0,.16-.6c-3.49-2.8-5.41-6-5.7-9.62-.5-6.22,4.13-11.46,4.17-11.51a.34.34,0,1,0-.5-.47c-.2.23-4.87,5.51-4.34,12,.31,3.78,2.31,7.17,5.95,10.09A.32.32,0,0,0,429.5,263.46Z"/><polygon class="cls-10" points="404 391.48 404.13 391.73 386.31 401.48 384.91 401.92 404 391.48"/><path class="cls-81" d="M405.15,389.36l1.37,2.56L402.34,394a.77.77,0,0,1-1-.33l-.45-.85a.79.79,0,0,1,.28-1.05Z"/><path class="cls-29" d="M436.62,368.31l4.54,8.51-32.11,17.56a1.36,1.36,0,0,1-1.85-.57L404,387.74a1.39,1.39,0,0,1,.56-1.88Z"/><path class="cls-82" d="M441.07,376,411.53,392.2a3.84,3.84,0,0,1-5.22-1.58l-.2-.38a3.92,3.92,0,0,1,1.56-5.28l29.55-16.15Z"/><path class="cls-10" d="M441.07,376,411.53,392.2a3.84,3.84,0,0,1-5.22-1.58l-.2-.38a3.92,3.92,0,0,1,1.56-5.28l29.55-16.15Z"/><path class="cls-83" d="M421.63,386.67l-12.47,6.82a1.15,1.15,0,0,1-1.57-.48l-2.75-5.16a1.18,1.18,0,0,1,.47-1.6l12.47-6.81Z"/><polygon class="cls-84" points="446.47 367.8 446.99 368.76 420.19 383.41 419.67 382.45 446.47 367.8"/><polygon class="cls-85" points="418.12 379.22 421.98 386.48 420.97 387.04 417.11 379.77 418.12 379.22"/><path class="cls-86" d="M437,366.89l5.53,10.38a.59.59,0,0,1-.23.79h0a.58.58,0,0,1-.78-.24L436,367.45a.59.59,0,0,1,.24-.79h0A.57.57,0,0,1,437,366.89Z"/><path class="cls-87" d="M444.45,362.82,450,373.19a.59.59,0,0,1-.23.79h0a.57.57,0,0,1-.78-.24l-5.53-10.37a.59.59,0,0,1,.24-.79h0A.55.55,0,0,1,444.45,362.82Z"/><path class="cls-88" d="M454.49,391.12c1.36.8,2.6,1.75,4,2.53a.23.23,0,0,0,.14,0c.09,0,.14-.1.18-.19a8,8,0,0,0,1.13-3,20.06,20.06,0,0,0,.14-4,8.27,8.27,0,0,0-1.63-4.51c-.82-1.32-.64-2.09-.55-3.49a9.85,9.85,0,0,0-.92-3.87,28.9,28.9,0,0,0-5.65-8.35l-3-3.35c-.73-.82-1.7-1.72-2.75-1.44-.45.23-.22,3.46-.11,4a26.92,26.92,0,0,0,1.92,4.71,2.52,2.52,0,0,1,.29,1.25c-3.5-.63-7-1.1-10.58-1.41-1.71-.15-7.76-1.54-8.54.57-.72,2,5.19,2.68,6.32,3.18,2,.88,3.91,2.59,2.66,4.82a5,5,0,0,0-.84,2.4c0,4.16,6.63,5.72,9.59,6.76,2.19.77,4.39,1.54,6.53,2.46A15.21,15.21,0,0,1,454.49,391.12Z"/><path class="cls-89" d="M477.35,375.65l-1.75-.09c.15-2.95.32-5.93.49-8.91,1.29-23.12,2.07-49.43-3.24-51.17l-1.56-1.38c5.49-.15,7.06,6.55,7.54,17.92.41,9.64-.3,22.4-1,34.73C477.67,369.73,477.51,372.71,477.35,375.65Z"/><ellipse class="cls-90" cx="475.54" cy="379.01" rx="5.36" ry="6.65"/><ellipse class="cls-29" cx="475.56" cy="379.17" rx="3.26" ry="5.11"/><path class="cls-91" d="M429.83,333.43l-1.76-.08c.55-12.12,3.57-18.84,10.5-19.25l-1.87,1.78C433.1,316.89,430.33,322.31,429.83,333.43Z"/><path class="cls-92" d="M428.53,366.11a9.94,9.94,0,0,1-1.24-.08c-.69-.09-3-.5-3.69-1.79-.86-1.59-2-17.36-2-20.24.08-4.65.73-10.18,5.11-11.67,1.75-.6,4.15,1,5.29,2.11a18.66,18.66,0,0,1,4,6.06,55.45,55.45,0,0,1,3,9c.79,3,2.7,13.53,2,14.47-.84,1.12-2.37,1.33-3.73,1.43l-.07-.89c1.16-.09,2.44-.25,3.07-1,.26-1-1.09-9.77-2.12-13.74a54.71,54.71,0,0,0-3-8.87,18,18,0,0,0-3.77-5.78c-1.08-1-3.14-2.35-4.4-1.92-3.87,1.32-4.45,6.49-4.52,10.85-.06,3.43,1.17,18.53,1.86,19.79.33.6,1.55,1.13,3,1.34s2.85,0,3.31-.49l.63.62A4,4,0,0,1,428.53,366.11Z"/><path class="cls-93" d="M439.47,364.31c.13.57-.81,1.26-2.08,1.54s-2.4,0-2.52-.52.81-1.25,2.08-1.53S439.35,363.74,439.47,364.31Z"/><path class="cls-94" d="M431.79,364.93c.12.57-.81,1.26-2.08,1.54s-2.4,0-2.52-.52.8-1.25,2.08-1.54S431.67,364.36,431.79,364.93Z"/><path class="cls-95" d="M422.07,346.79a.88.88,0,0,1-.88-.87c0-.65,0-1.3,0-1.92.08-4.8.77-10.51,5.41-12.1,2.4-.81,5.39,1.9,5.73,2.21a19.14,19.14,0,0,1,4.07,6.21c.54,1.2,1,2.45,1.5,3.84a.9.9,0,0,1-.54,1.14.88.88,0,0,1-1.12-.55c-.45-1.34-.93-2.55-1.44-3.69a17.57,17.57,0,0,0-3.66-5.64c-1.23-1.15-3.05-2.15-4-1.83-3.6,1.23-4.15,6.22-4.22,10.44,0,.6,0,1.23,0,1.86a.88.88,0,0,1-.86.9Z"/><text class="cls-96" transform="translate(653.02 249.47) scale(0.98 1)">Centro Veterinario </text><text class="cls-97" transform="translate(1054 428.74) scale(0.98 1)">Caninos y Felinos</text></svg>