<svg xmlns="http://www.w3.org/2000/svg" xmlns:xlink="http://www.w3.org/1999/xlink" viewBox="0 0 3710 3710"><defs><style>.cls-1{opacity:0;}.cls-2{fill:none;}.cls-3{fill:url(#linear-gradient);}.cls-4{fill:url(#linear-gradient-2);}.cls-5{fill:url(#linear-gradient-3);}.cls-6{fill:url(#linear-gradient-4);}.cls-7{fill:url(#linear-gradient-5);}.cls-8{fill:url(#linear-gradient-6);}.cls-9{fill:url(#linear-gradient-7);}.cls-10,.cls-13,.cls-16,.cls-21,.cls-28,.cls-30,.cls-42,.cls-53{fill:#fff;}.cls-11{fill:url(#linear-gradient-8);}.cls-12{fill:#bdd0fb;}.cls-13{opacity:0.78;}.cls-14,.cls-16{opacity:0.6;}.cls-15{fill:url(#linear-gradient-9);}.cls-17{fill:url(#linear-gradient-10);}.cls-18{fill:url(#linear-gradient-11);}.cls-19{fill:url(#linear-gradient-12);}.cls-20{fill:url(#linear-gradient-13);}.cls-21{opacity:0.48;}.cls-22{fill:url(#linear-gradient-14);}.cls-23{fill:url(#linear-gradient-15);}.cls-24{fill:url(#linear-gradient-16);}.cls-25{fill:url(#linear-gradient-17);}.cls-26{fill:url(#linear-gradient-18);}.cls-27{fill:url(#linear-gradient-19);}.cls-28{opacity:0.5;}.cls-29{fill:#91b3fa;}.cls-30{opacity:0.44;}.cls-31{fill:#7d97f4;}.cls-32{fill:url(#linear-gradient-20);}.cls-33{fill:url(#linear-gradient-21);}.cls-34{fill:url(#linear-gradient-22);}.cls-35{fill:url(#linear-gradient-23);}.cls-36{fill:url(#linear-gradient-24);}.cls-37{fill:url(#linear-gradient-25);}.cls-38{fill:url(#linear-gradient-26);}.cls-39{fill:url(#linear-gradient-27);}.cls-40{fill:url(#linear-gradient-28);}.cls-41{fill:url(#linear-gradient-29);}.cls-42{opacity:0.13;}.cls-43{fill:url(#linear-gradient-30);}.cls-44{fill:url(#linear-gradient-31);}.cls-45{fill:url(#linear-gradient-32);}.cls-46{fill:url(#linear-gradient-33);}.cls-47{fill:url(#linear-gradient-34);}.cls-48{fill:url(#linear-gradient-35);}.cls-49{fill:url(#linear-gradient-36);}.cls-50{fill:url(#linear-gradient-37);}.cls-51{fill:url(#linear-gradient-38);}.cls-52{fill:url(#linear-gradient-39);}.cls-53{opacity:0.26;}.cls-54{fill:url(#linear-gradient-40);}.cls-55{fill:url(#linear-gradient-41);}.cls-56{fill:url(#linear-gradient-42);}.cls-57{fill:url(#linear-gradient-43);}.cls-58{fill:url(#linear-gradient-44);}.cls-59{fill:url(#linear-gradient-45);}.cls-60{fill:url(#linear-gradient-46);}.cls-61{fill:url(#linear-gradient-47);}.cls-62{fill:url(#linear-gradient-48);}.cls-63{fill:url(#linear-gradient-49);}.cls-64{fill:url(#linear-gradient-50);}.cls-65{fill:url(#linear-gradient-51);}.cls-66{fill:url(#linear-gradient-52);}.cls-67{fill:url(#linear-gradient-53);}.cls-68{fill:url(#linear-gradient-54);}.cls-69{fill:url(#linear-gradient-55);}.cls-70{fill:url(#linear-gradient-56);}.cls-71{fill:url(#linear-gradient-57);}.cls-72{fill:url(#linear-gradient-58);}.cls-73{fill:url(#linear-gradient-59);}.cls-74{fill:url(#linear-gradient-60);}.cls-75{fill:url(#linear-gradient-61);}.cls-76{fill:url(#linear-gradient-62);}.cls-77{fill:url(#linear-gradient-63);}.cls-78{fill:url(#linear-gradient-64);}.cls-79{fill:url(#linear-gradient-65);}.cls-80{fill:url(#linear-gradient-66);}.cls-81{fill:url(#linear-gradient-67);}.cls-82{fill:url(#linear-gradient-68);}.cls-83{fill:url(#linear-gradient-69);}.cls-84{fill:url(#linear-gradient-70);}.cls-85{fill:url(#linear-gradient-71);}.cls-86{fill:url(#linear-gradient-72);}.cls-87{fill:url(#linear-gradient-73);}.cls-88{fill:url(#linear-gradient-74);}.cls-89{fill:url(#linear-gradient-75);}.cls-90{fill:url(#linear-gradient-76);}.cls-91{fill:url(#linear-gradient-77);}.cls-92{fill:url(#linear-gradient-78);}.cls-93{fill:url(#linear-gradient-79);}.cls-94{fill:url(#linear-gradient-80);}.cls-95{fill:url(#linear-gradient-81);}.cls-96{fill:url(#linear-gradient-82);}.cls-97{fill:url(#linear-gradient-83);}</style><linearGradient id="linear-gradient" x1="3379.85" y1="3587.83" x2="1372.25" y2="1420.89" gradientUnits="userSpaceOnUse"><stop offset="0" stop-color="#dae3fe"/><stop offset="1" stop-color="#e9effd"/></linearGradient><linearGradient id="linear-gradient-2" x1="2750.64" y1="891.99" x2="3807.91" y2="-557.4" gradientUnits="userSpaceOnUse"><stop offset="0" stop-color="#4f52ff"/><stop offset="1" stop-color="#4042e2"/></linearGradient><linearGradient id="linear-gradient-3" x1="2937.31" y1="1028.15" x2="3994.57" y2="-421.24" xlink:href="#linear-gradient-2"/><linearGradient id="linear-gradient-4" x1="3131.77" y1="1170.01" x2="4189.04" y2="-279.38" xlink:href="#linear-gradient-2"/><linearGradient id="linear-gradient-5" x1="2824.45" y1="945.84" x2="3881.72" y2="-503.56" xlink:href="#linear-gradient-2"/><linearGradient id="linear-gradient-6" x1="3594.89" y1="1507.83" x2="4652.15" y2="58.44" xlink:href="#linear-gradient-2"/><linearGradient id="linear-gradient-7" x1="-1203.09" y1="1711.42" x2="-3030.14" y2="4111.19" gradientTransform="translate(2754.68 -1270.33) rotate(-10.88)" gradientUnits="userSpaceOnUse"><stop offset="0" stop-color="#09005d"/><stop offset="1" stop-color="#1a0f91"/></linearGradient><linearGradient id="linear-gradient-8" x1="507.22" y1="-430.6" x2="860.82" y2="3369.09" gradientTransform="translate(1037.5 812.16) rotate(21.15)" xlink:href="#linear-gradient-2"/><linearGradient id="linear-gradient-9" x1="-2097.07" y1="2204.77" x2="-2516.78" y2="2921.12" gradientTransform="translate(2754.68 -1270.33) rotate(-10.88)" gradientUnits="userSpaceOnUse"><stop offset="0" stop-color="#e1473d"/><stop offset="1" stop-color="#e9605a"/></linearGradient><linearGradient id="linear-gradient-10" x1="1037.56" y1="891.39" x2="1039.21" y2="1141.24" gradientUnits="userSpaceOnUse"><stop offset="0" stop-color="#ff928e"/><stop offset="1" stop-color="#fe7062"/></linearGradient><linearGradient id="linear-gradient-11" x1="-1651.54" y1="1098.31" x2="-1520.62" y2="1609.21" gradientTransform="translate(2306.03 -349.18) rotate(-8.81)" xlink:href="#linear-gradient-9"/><linearGradient id="linear-gradient-12" x1="-1451.13" y1="1177.89" x2="-1219.09" y2="1535.52" gradientTransform="translate(2306.03 -349.18) rotate(-8.81)" xlink:href="#linear-gradient-9"/><linearGradient id="linear-gradient-13" x1="-1413.16" y1="1042.04" x2="-1638.81" y2="1545.49" gradientTransform="translate(2306.03 -349.18) rotate(-8.81)" xlink:href="#linear-gradient-10"/><linearGradient id="linear-gradient-14" x1="-1415.47" y1="1159.44" x2="-1473.19" y2="1267.29" gradientTransform="translate(2306.03 -349.18) rotate(-8.81)" xlink:href="#linear-gradient-7"/><linearGradient id="linear-gradient-15" x1="-1401.64" y1="1119.61" x2="-1445.59" y2="1197.81" gradientTransform="translate(2306.03 -349.18) rotate(-8.81)" xlink:href="#linear-gradient-7"/><linearGradient id="linear-gradient-16" x1="-1481.28" y1="1118.58" x2="-1525.23" y2="1196.79" gradientTransform="translate(2306.03 -349.18) rotate(-8.81)" xlink:href="#linear-gradient-7"/><linearGradient id="linear-gradient-17" x1="102.14" y1="-576.07" x2="-389.52" y2="70.69" gradientTransform="translate(1068.84 926.94) rotate(26.53)" xlink:href="#linear-gradient-7"/><linearGradient id="linear-gradient-18" x1="-1678.9" y1="1320.44" x2="-2209.05" y2="2017.84" xlink:href="#linear-gradient-7"/><linearGradient id="linear-gradient-19" x1="-1525.43" y1="958.62" x2="-1891.48" y2="1630.77" gradientTransform="translate(2754.68 -1270.33) rotate(-10.88)" xlink:href="#linear-gradient-2"/><linearGradient id="linear-gradient-20" x1="3319.13" y1="1392.98" x2="2969.23" y2="1022.93" xlink:href="#linear-gradient-10"/><linearGradient id="linear-gradient-21" x1="4491" y1="187.73" x2="3359.62" y2="603.21" gradientTransform="matrix(1, 0, 0, 1, 0, 0)" xlink:href="#linear-gradient-9"/><linearGradient id="linear-gradient-22" x1="3085.74" y1="714.48" x2="2862.33" y2="1088.24" xlink:href="#linear-gradient-10"/><linearGradient id="linear-gradient-23" x1="3163.05" y1="775.91" x2="2867.08" y2="1175.08" gradientUnits="userSpaceOnUse"><stop offset="0" stop-color="#febbba"/><stop offset="1" stop-color="#ff928e"/></linearGradient><linearGradient id="linear-gradient-24" x1="2865.05" y1="1153.42" x2="3056.84" y2="850.64" xlink:href="#linear-gradient-10"/><linearGradient id="linear-gradient-25" x1="3104.94" y1="737.95" x2="2790.47" y2="1043.65" xlink:href="#linear-gradient-23"/><linearGradient id="linear-gradient-26" x1="2820.59" y1="716.23" x2="3141.09" y2="210.27" xlink:href="#linear-gradient-10"/><linearGradient id="linear-gradient-27" x1="2840.3" y1="606.13" x2="2932.96" y2="447.29" gradientTransform="matrix(1, 0, 0, 1, 0, 0)" xlink:href="#linear-gradient-9"/><linearGradient id="linear-gradient-28" x1="2987.36" y1="448.23" x2="2901.31" y2="530.96" xlink:href="#linear-gradient-10"/><linearGradient id="linear-gradient-29" x1="2931.97" y1="543.34" x2="2914.2" y2="573.08" gradientTransform="matrix(1, 0, 0, 1, 0, 0)" xlink:href="#linear-gradient-7"/><linearGradient id="linear-gradient-30" x1="3014.26" y1="1152.29" x2="2700.7" y2="1451.84" xlink:href="#linear-gradient-2"/><linearGradient id="linear-gradient-31" x1="2763.04" y1="1048.14" x2="3018.58" y2="1048.14" xlink:href="#linear-gradient-2"/><linearGradient id="linear-gradient-32" x1="1842.38" y1="2769.03" x2="1806.46" y2="2829.12" gradientTransform="translate(-381.08 151.88) rotate(-41.33)" xlink:href="#linear-gradient-10"/><linearGradient id="linear-gradient-33" x1="1852.5" y1="2778.38" x2="1816.58" y2="2838.47" gradientTransform="translate(-381.08 151.88) rotate(-41.33)" xlink:href="#linear-gradient-10"/><linearGradient id="linear-gradient-34" x1="1865.56" y1="2787.98" x2="1829.65" y2="2848.07" gradientTransform="translate(-381.08 151.88) rotate(-41.33)" xlink:href="#linear-gradient-10"/><linearGradient id="linear-gradient-35" x1="1886.06" y1="2816.29" x2="1850.15" y2="2876.37" gradientTransform="translate(-381.08 151.88) rotate(-41.33)" xlink:href="#linear-gradient-10"/><linearGradient id="linear-gradient-36" x1="1896.18" y1="2825.64" x2="1860.26" y2="2885.73" gradientTransform="translate(-381.08 151.88) rotate(-41.33)" xlink:href="#linear-gradient-10"/><linearGradient id="linear-gradient-37" x1="1909.25" y1="2835.24" x2="1873.33" y2="2895.33" gradientTransform="translate(-381.08 151.88) rotate(-41.33)" xlink:href="#linear-gradient-10"/><linearGradient id="linear-gradient-38" x1="1933.42" y1="2839.26" x2="1893.77" y2="2849.24" gradientTransform="translate(-381.08 151.88) rotate(-41.33)" xlink:href="#linear-gradient-10"/><linearGradient id="linear-gradient-39" x1="1885.4" y1="2787.14" x2="1845.74" y2="2797.12" gradientTransform="translate(-381.08 151.88) rotate(-41.33)" xlink:href="#linear-gradient-10"/><linearGradient id="linear-gradient-40" x1="2012.56" y1="2123.75" x2="2886.21" y2="919.16" gradientTransform="matrix(1, 0, 0, 1, 0, 0)" xlink:href="#linear-gradient-9"/><linearGradient id="linear-gradient-41" x1="1634.23" y1="1646.76" x2="1515.1" y2="2480.7" xlink:href="#linear-gradient-10"/><linearGradient id="linear-gradient-42" x1="2066.67" y1="761.72" x2="1947.54" y2="1595.66" gradientTransform="matrix(-1, 0, 0, 1, 3858, 0)" xlink:href="#linear-gradient-10"/><linearGradient id="linear-gradient-43" x1="1453.69" y1="3117.34" x2="1748.22" y2="1191.34" xlink:href="#linear-gradient-10"/><linearGradient id="linear-gradient-44" x1="1909.66" y1="3187.06" x2="2204.18" y2="1261.07" xlink:href="#linear-gradient-10"/><linearGradient id="linear-gradient-45" x1="1622.4" y1="3143.14" x2="1916.92" y2="1217.14" xlink:href="#linear-gradient-10"/><linearGradient id="linear-gradient-46" x1="1595.17" y1="3209.02" x2="1806.96" y2="1891.93" xlink:href="#linear-gradient-10"/><linearGradient id="linear-gradient-47" x1="1930.21" y1="2154.51" x2="2142" y2="837.42" gradientTransform="matrix(-1, 0, 0, 1, 3743.2, 0)" xlink:href="#linear-gradient-10"/><linearGradient id="linear-gradient-48" x1="1807.33" y1="632.45" x2="1478.49" y2="979.55" gradientTransform="matrix(1, 0, 0, 1, 0, 0)" xlink:href="#linear-gradient-9"/><linearGradient id="linear-gradient-49" x1="2037.16" y1="632.45" x2="1708.32" y2="979.55" gradientTransform="matrix(-1, 0, 0, 1, 3823.24, 0)" xlink:href="#linear-gradient-9"/><linearGradient id="linear-gradient-50" x1="1518.59" y1="1301.22" x2="825.13" y2="2417.31" gradientTransform="matrix(1, 0, 0, 1, 0, 0)" xlink:href="#linear-gradient-9"/><linearGradient id="linear-gradient-51" x1="2141.73" y1="525.18" x2="3022" y2="-394.79" xlink:href="#linear-gradient-10"/><linearGradient id="linear-gradient-52" x1="2033.49" y1="636.66" x2="1867.77" y2="946.34" gradientTransform="matrix(1, 0, 0, 1, 0, 0)" xlink:href="#linear-gradient-7"/><linearGradient id="linear-gradient-53" x1="2073.2" y1="522.27" x2="1947.02" y2="746.83" gradientTransform="matrix(1, 0, 0, 1, 0, 0)" xlink:href="#linear-gradient-7"/><linearGradient id="linear-gradient-54" x1="1844.52" y1="519.33" x2="1718.34" y2="743.89" gradientTransform="translate(1052.58 -967.55) rotate(45)" xlink:href="#linear-gradient-7"/><linearGradient id="linear-gradient-55" x1="2321.49" y1="2118.78" x2="2680.56" y2="2118.78" gradientTransform="matrix(-1, 0, 0, 1, 4973.77, 0)" xlink:href="#linear-gradient-7"/><linearGradient id="linear-gradient-56" x1="2272.46" y1="1191.47" x2="1744.94" y2="1866.4" gradientTransform="matrix(-0.97, 0.25, 0.25, 0.97, 3555.1, 216.9)" xlink:href="#linear-gradient-23"/><linearGradient id="linear-gradient-57" x1="2602.96" y1="1843.89" x2="2604.39" y2="1843.89" gradientTransform="matrix(-1, 0, 0, 1, 4973.77, 0)" xlink:href="#linear-gradient-7"/><linearGradient id="linear-gradient-58" x1="2627.39" y1="1842.91" x2="2627.22" y2="1843.18" gradientTransform="matrix(-1, 0, 0, 1, 4973.77, 0)" gradientUnits="userSpaceOnUse"><stop offset="0" stop-color="#53eac9"/><stop offset="1" stop-color="#45aed8"/></linearGradient><linearGradient id="linear-gradient-59" x1="2742.91" y1="3081.66" x2="2163.93" y2="3711.43" gradientTransform="matrix(-1, 0, 0, 1, 4973.77, 0)" xlink:href="#linear-gradient-7"/><linearGradient id="linear-gradient-60" x1="2554.98" y1="3128.43" x2="2606.41" y2="3128.43" gradientTransform="matrix(-1, 0, 0, 1, 4973.77, 0)" xlink:href="#linear-gradient-23"/><linearGradient id="linear-gradient-61" x1="2788.5" y1="2369.46" x2="2295.84" y2="3037.19" gradientTransform="matrix(-1, 0, 0, 1, 4973.77, 0)" xlink:href="#linear-gradient-7"/><linearGradient id="linear-gradient-62" x1="2613.02" y1="2962.25" x2="2034.04" y2="3592.02" gradientTransform="matrix(-1, 0, 0, 1, 4973.77, 0)" xlink:href="#linear-gradient-7"/><linearGradient id="linear-gradient-63" x1="2369.63" y1="3125.8" x2="2414.04" y2="3125.8" gradientTransform="matrix(-1, 0, 0, 1, 4973.77, 0)" xlink:href="#linear-gradient-23"/><linearGradient id="linear-gradient-64" x1="2700.69" y1="2304.67" x2="2208.04" y2="2972.41" gradientTransform="matrix(-1, 0, 0, 1, 4973.77, 0)" xlink:href="#linear-gradient-7"/><linearGradient id="linear-gradient-65" x1="2314.15" y1="1904.79" x2="2376.76" y2="1871.65" gradientTransform="matrix(-1, 0, 0, 1, 4973.77, 0)" xlink:href="#linear-gradient-23"/><linearGradient id="linear-gradient-66" x1="-1452.46" y1="1351.16" x2="-1631.88" y2="1488.44" gradientTransform="matrix(-0.99, 0.14, 0.14, 0.99, 742.4, 546.1)" xlink:href="#linear-gradient-23"/><linearGradient id="linear-gradient-67" x1="-1716.36" y1="1159.74" x2="-1388.98" y2="1581.25" gradientTransform="translate(3844.19 101.78) rotate(-8.15)" xlink:href="#linear-gradient-7"/><linearGradient id="linear-gradient-68" x1="-1474.72" y1="1322.08" x2="-1654.13" y2="1459.36" gradientTransform="matrix(-0.99, 0.14, 0.14, 0.99, 742.4, 546.1)" xlink:href="#linear-gradient-23"/><linearGradient id="linear-gradient-69" x1="3565.49" y1="-202.74" x2="3574.09" y2="-138.28" gradientTransform="translate(4100.45 5217.71) rotate(-118.35)" xlink:href="#linear-gradient-7"/><linearGradient id="linear-gradient-70" x1="2840.57" y1="4353.27" x2="3003.37" y2="4353.27" gradientTransform="translate(6958.83 4568.11) rotate(151.65)" xlink:href="#linear-gradient-58"/><linearGradient id="linear-gradient-71" x1="3575.89" y1="-182.17" x2="3545.34" y2="-43.43" gradientTransform="translate(2423.71 5715) rotate(-90)" xlink:href="#linear-gradient-2"/><linearGradient id="linear-gradient-72" x1="2896.52" y1="-2930.11" x2="2931.21" y2="-2780.95" gradientTransform="translate(-1200.83 2145.02)" xlink:href="#linear-gradient-2"/><linearGradient id="linear-gradient-73" x1="3549.76" y1="-113.38" x2="3585.18" y2="-113.38" gradientTransform="translate(-1260.86 2245.46)" xlink:href="#linear-gradient-7"/><linearGradient id="linear-gradient-74" x1="3539.61" y1="-15.88" x2="3595.23" y2="-15.88" gradientTransform="translate(4100.45 5217.71) rotate(-118.35)" xlink:href="#linear-gradient-7"/><linearGradient id="linear-gradient-75" x1="2881.95" y1="-2926.48" x2="2916.64" y2="-2777.34" gradientTransform="translate(4100.45 5217.71) rotate(-118.35)" xlink:href="#linear-gradient-2"/><linearGradient id="linear-gradient-76" x1="2490.61" y1="2108.36" x2="2628.05" y2="2108.36" gradientTransform="matrix(-1, 0, 0, 1, 4973.77, 0)" xlink:href="#linear-gradient-23"/><linearGradient id="linear-gradient-77" x1="-596.66" y1="1967.92" x2="-563.32" y2="1967.92" gradientTransform="translate(3128.25)" xlink:href="#linear-gradient-7"/><linearGradient id="linear-gradient-78" x1="-498.89" y1="2039.94" x2="-627.86" y2="2161.27" gradientTransform="translate(3128.25)" xlink:href="#linear-gradient-2"/><linearGradient id="linear-gradient-79" x1="-784.66" y1="1877.27" x2="-739" y2="1877.27" gradientTransform="translate(3128.25)" xlink:href="#linear-gradient-7"/><linearGradient id="linear-gradient-80" x1="-779.43" y1="1821.26" x2="-767.49" y2="2060.57" gradientTransform="translate(3128.25)" xlink:href="#linear-gradient-2"/><linearGradient id="linear-gradient-81" x1="-613.8" y1="1560.31" x2="-593.29" y2="1560.31" gradientTransform="matrix(0.98, -0.21, 0.21, 0.98, 2639.02, 400.21)" xlink:href="#linear-gradient-2"/><linearGradient id="linear-gradient-82" x1="-647.01" y1="1555.75" x2="-626.51" y2="1555.75" gradientTransform="matrix(0.98, -0.21, 0.21, 0.98, 2639.02, 400.21)" xlink:href="#linear-gradient-2"/><linearGradient id="linear-gradient-83" x1="-814.63" y1="1943.85" x2="-741.69" y2="1943.85" gradientTransform="translate(3128.25)" xlink:href="#linear-gradient-7"/></defs><g id="Background" class="cls-1"><rect class="cls-2" width="3710" height="3710"/></g><g id="Illustration"><path class="cls-3" d="M3100.08,2353c-275.86,644.79-1004,921.74-1574.58,874.52-155.78-12.89-469.21-38.83-713.94-270.27-470-444.45-397.61-1373.49,52.31-1920.45,57.94-70.44,459-542.36,1083.95-536,457.56,4.63,778.72,263.1,817.77,295.3,49.33,40.68,158.14,137.34,256.21,290.69C3252.21,1447,3272.46,1950.05,3100.08,2353Z"/><rect class="cls-4" x="1928.06" y="1100.92" width="1281.62" height="80.52" rx="39.71"/><rect class="cls-5" x="1926.44" y="1495.2" width="1281.62" height="80.52" rx="39.71"/><path class="cls-6" d="M3171.26,1979.63H1969.06a39.83,39.83,0,0,1-39.71-39.71h0a39.83,39.83,0,0,1,39.71-39.71h1202.2a39.83,39.83,0,0,1,39.71,39.71h0A39.83,39.83,0,0,1,3171.26,1979.63Z"/><rect class="cls-7" x="1934.68" y="1074.91" width="87.08" height="2062.03" rx="39.71"/><rect class="cls-8" x="3127.67" y="1057.63" width="87.08" height="2062.03" rx="39.71"/><path class="cls-9" d="M602.69,850.31l1132-217.6a119.43,119.43,0,0,1,138.52,88.8l399,1625.08a88.06,88.06,0,0,1-67.33,107.16L912,2726.73a83.6,83.6,0,0,1-99.36-66L495.17,1009A135.55,135.55,0,0,1,602.69,850.31Z"/><path class="cls-10" d="M934.84,2690c-42.73,0-81.12-30.49-89.45-73.79L803.26,2397a3.31,3.31,0,0,1,6.5-1.25l42.13,219.18c8.67,45.09,52.46,75.19,97.69,67.11l145.53-26a3.31,3.31,0,0,1,1.16,6.52l-145.53,26A90.6,90.6,0,0,1,934.84,2690Z"/><path class="cls-10" d="M793.45,2331.8a3.3,3.3,0,0,1-3.24-2.69l-6.83-35.49a3.31,3.31,0,0,1,6.51-1.24l6.82,35.49a3.31,3.31,0,0,1-2.63,3.87A3.36,3.36,0,0,1,793.45,2331.8Z"/><path class="cls-11" d="M603.62,836.34c158.61-8.75,702.63-46.1,1135.64-164.32a36.41,36.41,0,0,1,45,26.32L2188.74,2330a41.9,41.9,0,0,1-30.34,50.7c-182.74,46.47-935.84,235.09-1212.83,258.85a33.21,33.21,0,0,1-35.37-26.66l-343-1729.51A39.37,39.37,0,0,1,603.62,836.34Z"/><path class="cls-12" d="M628.39,875.92C781,867.5,1304.57,831.55,1721.27,717.78a35,35,0,0,1,43.29,25.33l389.27,1570.18a40.33,40.33,0,0,1-29.2,48.79c-175.86,44.72-900.6,226.24-1167.16,249.1a31.94,31.94,0,0,1-34-25.65L593.32,921.14A37.89,37.89,0,0,1,628.39,875.92Z"/><path class="cls-13" d="M754.55,1017l81.17,337.07a22,22,0,0,0,24.95,16.59c63.33-10.33,260.52-43.28,370.24-70.36a24.59,24.59,0,0,0,18.38-27.73c-10.15-64.19-41.21-250.72-70.66-325.54a27.76,27.76,0,0,0-30.13-17.19L773.69,988.37A23.4,23.4,0,0,0,754.55,1017Z"/><g class="cls-14"><path class="cls-10" d="M1691.94,867.48c7.15-1.37,11.87-7.6,10.48-13.84s-8.4-10.33-15.57-9.08l-410.19,71.3c-7.17,1.24-10,7.41-6.36,13.69l3.29,5.64c3.67,6.29,12.52,10.3,19.67,8.93Z"/></g><g class="cls-14"><path class="cls-10" d="M1288.85,979.26c-7.17,1.25-10,7.41-6.37,13.7l3.29,5.63c3.68,6.29,12.53,10.31,19.68,8.93l398.68-76.64c7.15-1.37,11.86-7.6,10.47-13.84s-8.39-10.32-15.56-9.08Z"/></g><g class="cls-14"><path class="cls-10" d="M1301.22,1043.58c-7.18,1.25-10,7.41-6.37,13.7l3.29,5.64c3.67,6.28,12.52,10.3,19.67,8.93l398.69-76.64c7.15-1.37,11.86-7.6,10.47-13.84s-8.4-10.33-15.57-9.08Z"/></g><g class="cls-14"><path class="cls-10" d="M1815.78,1297.8c7.15-1.38,11.68-7.57,10.06-13.77s-8.81-10.18-16-8.86L851.45,1451.58c-7.16,1.32-8.49,6.27-3,11l10.11,8.66c5.53,4.74,15.9,7.49,23,6.12Z"/></g><g class="cls-14"><path class="cls-10" d="M863.64,1515c-7.16,1.32-8.49,6.28-3,11l10.11,8.67c5.53,4.73,15.9,7.48,23.05,6.11L1828,1361.2c7.15-1.37,11.67-7.57,10-13.76s-8.8-10.19-16-8.87Z"/></g><path class="cls-10" d="M950.34,1751.13c-9.86,0-18.58-5.8-21.29-14.72l-20.11-66.36a15.16,15.16,0,0,1,1.36-11.86,18.2,18.2,0,0,1,11.28-8.54h0c6.71-1.77,16.13-4.43,26.1-7.24,22.09-6.23,47.14-13.29,62.06-16.36,10.79-2.22,21.41,2.53,25.81,11.55,7.21,14.77,12.5,44.28,17.72,75.79,1.73,10.39-6.12,20.52-17.48,22.58l-80.87,14.75A25.57,25.57,0,0,1,950.34,1751.13Zm64.56-119a19.3,19.3,0,0,0-3.83.39c-14.69,3-40.69,10.35-61.59,16.24-10,2.82-19.45,5.49-26.21,7.27h0a11.56,11.56,0,0,0-7.19,5.37,8.6,8.6,0,0,0-.81,6.71l20.12,66.36c2.14,7.06,10,11.22,18.34,9.72l80.88-14.74c7.82-1.43,13.27-8.15,12.13-15-5.14-31-10.32-60-17.14-74C1027.08,1635.34,1021.24,1632.15,1014.9,1632.15Z"/><g class="cls-14"><path class="cls-10" d="M1099.72,1650.73c-7.15,1.35-10.42,7.83-7.27,14.39l6.93,14.43c3.15,6.56,11.57,10.75,18.7,9.3l731.15-148.5a13.1,13.1,0,0,0,10.19-15.58l-.88-4.1a13.68,13.68,0,0,0-15.79-10.48Z"/></g><path class="cls-15" d="M938.73,1671.19h0a12.62,12.62,0,0,1,18,1.36l21.4,25.48a4.06,4.06,0,0,0,7-1.67l22.59-95.51a4.49,4.49,0,0,1,8.79.28c4.77,27,7.46,79.46-27.28,130.51,0,0-25.45-4.65-52.57-42.86A13.23,13.23,0,0,1,938.73,1671.19Z"/><path class="cls-10" d="M983.6,1924.14c-9.86,0-18.58-5.81-21.29-14.72l-20.11-66.36a15.16,15.16,0,0,1,1.36-11.86,18.15,18.15,0,0,1,11.27-8.54h0c6.7-1.77,16.11-4.42,26.07-7.23,21-5.93,47.16-13.31,62.09-16.37,10.8-2.22,21.41,2.53,25.81,11.55,7.21,14.77,12.49,44.28,17.72,75.79,1.73,10.38-6.12,20.52-17.48,22.58l-80.87,14.74A24.7,24.7,0,0,1,983.6,1924.14Zm-27.07-95.08a11.53,11.53,0,0,0-7.19,5.37,8.6,8.6,0,0,0-.81,6.71l20.12,66.36c2.14,7,10,11.22,18.34,9.72l80.87-14.74c7.83-1.43,13.28-8.16,12.14-15-5.14-31-10.32-60-17.14-74-3-6.2-10.84-9.56-18.53-8-14.69,3-40.71,10.35-61.62,16.25-10,2.81-19.43,5.47-26.18,7.26Z"/><path class="cls-16" d="M966.51,1834.23c16.74-4.42,52.87-15.24,70.31-18.82,7.39-1.52,14.75,1.71,17.72,7.8,5.77,11.82,10.1,36.77,13.93,59.84,1.15,6.9-4.11,13.6-11.83,15L992,1909.84c-8,1.45-15.57-2.69-17.67-9.6l-16.07-53C956.61,1841.72,960.31,1835.87,966.51,1834.23Z"/><g class="cls-14"><path class="cls-10" d="M1133,1823.74c-7.15,1.35-10.43,7.83-7.27,14.39l6.93,14.43c3.15,6.56,11.57,10.75,18.7,9.3l731.15-148.5a13.1,13.1,0,0,0,10.19-15.58l-.89-4.1A13.67,13.67,0,0,0,1876,1683.2Z"/></g><path class="cls-10" d="M1016.86,2097.15c-9.86,0-18.59-5.81-21.29-14.72l-20.11-66.36a15.08,15.08,0,0,1,1.36-11.86,18.15,18.15,0,0,1,11.27-8.54h0c6.71-1.77,16.12-4.43,26.09-7.24,21-5.92,47.15-13.3,62.08-16.36,10.8-2.23,21.41,2.53,25.8,11.55,7.21,14.77,12.5,44.28,17.73,75.79,1.72,10.38-6.12,20.51-17.48,22.58l-80.87,14.74A24.78,24.78,0,0,1,1016.86,2097.15Zm64.56-119a19.22,19.22,0,0,0-3.83.39c-14.69,3-40.71,10.36-61.61,16.25-10,2.82-19.44,5.48-26.2,7.27h0a11.53,11.53,0,0,0-7.18,5.36,8.57,8.57,0,0,0-.81,6.72l20.11,66.36c2.15,7,10,11.22,18.35,9.72l80.87-14.75c7.83-1.43,13.27-8.15,12.14-15-5.15-31-10.33-60-17.14-74C1093.6,1981.35,1087.76,1978.16,1081.42,1978.16Z"/><path class="cls-16" d="M999.77,2007.24c16.73-4.42,52.87-15.25,70.31-18.82,7.39-1.52,14.75,1.71,17.72,7.8,5.77,11.82,10.1,36.77,13.93,59.83,1.14,6.91-4.11,13.61-11.84,15l-64.62,11.78c-7.95,1.45-15.58-2.7-17.67-9.6l-16.07-53C989.86,2014.73,993.57,2008.88,999.77,2007.24Z"/><g class="cls-14"><path class="cls-10" d="M1166.24,1996.75c-7.16,1.35-10.43,7.83-7.28,14.39l6.93,14.43c3.16,6.56,11.57,10.74,18.71,9.29l731.14-148.49a13.09,13.09,0,0,0,10.19-15.58l-.88-4.1a13.67,13.67,0,0,0-15.79-10.48Z"/></g><path class="cls-10" d="M1050.11,2270.16c-9.85,0-18.58-5.81-21.28-14.72l-20.12-66.37a15.13,15.13,0,0,1,1.37-11.86,18.17,18.17,0,0,1,11.27-8.53c6.7-1.77,16.11-4.43,26.08-7.24,21-5.92,47.16-13.3,62.08-16.36,10.8-2.23,21.41,2.53,25.81,11.55,7.21,14.77,12.5,44.28,17.72,75.79,1.73,10.38-6.11,20.51-17.47,22.58l-80.87,14.74A25.7,25.7,0,0,1,1050.11,2270.16Zm64.56-119a19.3,19.3,0,0,0-3.83.39c-14.69,3-40.71,10.36-61.62,16.25-10,2.82-19.42,5.48-26.18,7.27h0a11.54,11.54,0,0,0-7.19,5.36,8.61,8.61,0,0,0-.8,6.72l20.11,66.36c2.14,7.05,10,11.21,18.35,9.71l80.87-14.74c7.83-1.43,13.27-8.15,12.14-15-5.15-31-10.33-60-17.14-74C1126.85,2154.36,1121,2151.17,1114.67,2151.17Z"/><path class="cls-16" d="M1033,2180.25c16.73-4.42,52.87-15.25,70.31-18.83,7.39-1.51,14.74,1.71,17.72,7.8,5.77,11.83,10.1,36.78,13.93,59.84,1.14,6.91-4.12,13.61-11.84,15l-64.62,11.79c-8,1.44-15.58-2.7-17.67-9.6l-16.08-53C1023.12,2187.74,1026.82,2181.89,1033,2180.25Z"/><g class="cls-14"><path class="cls-10" d="M1199.5,2169.75c-7.16,1.36-10.43,7.83-7.28,14.4l6.93,14.42c3.15,6.57,11.57,10.75,18.71,9.3L1949,2059.37a13.08,13.08,0,0,0,10.19-15.57l-.88-4.11a13.69,13.69,0,0,0-15.79-10.48Z"/></g><path class="cls-17" d="M969.3,1314.55l147-22.78a17,17,0,0,0,12-25.46,623.05,623.05,0,0,1-36.89-72.18,17,17,0,0,0-18.22-10.06l-108.31,16.79a17,17,0,0,0-14.28,18.85c3,26.06,2.09,51.26-.79,76A17,17,0,0,0,969.3,1314.55Z"/><path class="cls-18" d="M919.24,1032.73c-24.6,21.64-46,42.52-58.9,61.41a39.58,39.58,0,0,0-2.34,52.12l27.41,34.25a55.81,55.81,0,0,1,12.05,30.27l4.33,52a12.44,12.44,0,0,0,21.59,7.35c19.37-10.27,32.62-26.59,42.32-46.39Z"/><path class="cls-19" d="M1085.64,1006.93c30,13.18,56.68,26.61,74.73,40.7a39.58,39.58,0,0,1,18,49l-15.75,40.94a55.85,55.85,0,0,0-2.33,32.5l11.62,50.87a12.43,12.43,0,0,1-18.34,13.54c-21.58-3.93-39.14-15.47-54.39-31.4Z"/><path class="cls-20" d="M1105,1044.55c-7.18-46.35-57.5-77-112.39-68.53s-93.55,53-86.37,99.34c2.57,16.58,10.66,31.15,22.51,42.65a52.37,52.37,0,0,1,15.94,43.11,61.94,61.94,0,0,0,.43,15.54c6.11,39.38,44,67.49,95.5,58.22,53-9.52,79.49-45,73.39-84.4a62.66,62.66,0,0,0-11.89-28,33.14,33.14,0,0,1-3.68-34.35A74.62,74.62,0,0,0,1105,1044.55Z"/><path class="cls-21" d="M953.36,990.9c29.25,39.54,67.21,99.51,60.33,144.17-1.13,7.35-1.48,14.76-8,19.43-17,12.14-30.78,25.93-36,37.38-4.12,9-8.23,20.39-.9,27.23,14.08,13.13,32.91,18.39,55.56,17a15.79,15.79,0,0,0,11.77-6c3.12-4.22,4.41-9.33,4.18-15.19a.31.31,0,0,1,.59-.11c.77,2.18,1.37,4.42,2.44,5.89,5.14,7.07,15.39,9.53,24.24,6.06,23.3-9.13,28-16.67,38.31-31,4.79-6.69-.79-20.9-5.85-27.12-8.76-10.8-19.62-16-48-22.72-7-1.66-11.43-6.94-13.81-13.1-12.92-33.46-8.93-101.25-1.82-154.13C1003.65,969.36,971.86,980.69,953.36,990.9Z"/><path class="cls-22" d="M1052.42,1163.35c.77,5-14.17,14.93-19.22,16.24-4.19,1.08-22.45-4.66-23.23-9.66s8.1-10.53,19.82-12.34S1051.64,1158.35,1052.42,1163.35Z"/><path class="cls-23" d="M1063.28,1070.73a8.38,8.38,0,1,1-9.56-7A8.38,8.38,0,0,1,1063.28,1070.73Z"/><path class="cls-24" d="M984.42,1081.92a8.38,8.38,0,1,1-9.56-7A8.38,8.38,0,0,1,984.42,1081.92Z"/><path class="cls-25" d="M1195.87,504.26c-46.36-20.59-81.8-13.19-105.41-1a50.84,50.84,0,0,0-25.37,59.3l33.44,115.74L1229.16,665S1286.78,544.63,1195.87,504.26Zm-38.21,105.9A32.62,32.62,0,1,1,1183.53,572,32.61,32.61,0,0,1,1157.66,610.16Z"/><path class="cls-12" d="M1101.24,626.48a3.32,3.32,0,0,1-3.18-2.39l-5.32-18.43a3.31,3.31,0,1,1,6.36-1.83l5.32,18.43a3.29,3.29,0,0,1-2.26,4.09A3.25,3.25,0,0,1,1101.24,626.48Zm-10.43-36.11a3.33,3.33,0,0,1-3.19-2.4l-4-14a48.68,48.68,0,0,1,24.25-56.67,97.4,97.4,0,0,1,46.65-11,3.31,3.31,0,0,1,0,6.62h0a91.13,91.13,0,0,0-43.52,10.23,42.06,42.06,0,0,0-20.93,49l4,14a3.32,3.32,0,0,1-2.27,4.1A3.57,3.57,0,0,1,1090.81,590.37Z"/><path class="cls-26" d="M937.88,788.13,926.49,728.9a36.81,36.81,0,0,1,30.44-43.31L1368,621.08a35.8,35.8,0,0,1,40.24,26.51l14.35,56.26Z"/><path class="cls-12" d="M1057.94,689.41a3.31,3.31,0,0,1-.62-6.56l17.57-3.38a3.31,3.31,0,1,1,1.24,6.5l-17.56,3.38A3.36,3.36,0,0,1,1057.94,689.41Z"/><path class="cls-12" d="M955.8,765.49a3.3,3.3,0,0,1-3.24-2.69l-4.61-24a34.4,34.4,0,0,1,27.25-40.21l64.56-12.4a3.31,3.31,0,0,1,1.25,6.5l-64.57,12.41a27.75,27.75,0,0,0-22,32.46l4.61,24a3.31,3.31,0,0,1-2.63,3.87A3.36,3.36,0,0,1,955.8,765.49Z"/><path class="cls-27" d="M805.75,791.05l714.11-137.3a53.76,53.76,0,0,1,60.42,33.78l1.28,3.38a46.17,46.17,0,0,1-34.47,61.65L814.46,893.39a30,30,0,0,1-35.38-25.23l-4.72-33.09A39.18,39.18,0,0,1,805.75,791.05Z"/><path class="cls-12" d="M484.64,2741.73a3.67,3.67,0,0,1-.85-7.12c59.15-20.75,280.15-83.66,523.65,31.89,222.78,105.73,361.77,216.4,411.81,259.65a17.11,17.11,0,0,1-5.38,29c-72.93,26.29-281,89.22-418.59,9.56C830.84,2969.55,671,2761.93,484.64,2741.73Z"/><path class="cls-28" d="M696.43,2760.59s216.09-18.28,709,274.27C1405.42,3034.86,894.49,2767.1,696.43,2760.59Z"/><path class="cls-29" d="M1585,2992.11s-426.12-674.9-934.52-946c-34.18-18.22-76.84,8.45-75.11,47.08C587,2351.54,696.26,3109.13,1585,2992.11Z"/><path class="cls-28" d="M1493.16,2971.24c2.45,1.1.91,4.76-1.68,4-95.49-28.36-484-196.08-774.44-700.52a1.54,1.54,0,0,1,2.57-1.69C798.85,2385.76,1106,2796.2,1493.16,2971.24Z"/><path class="cls-12" d="M2462.16,1107.14c-34.82,4.49-66.52,5.34-92.92,0a28.32,28.32,0,0,1-28.23-28.23V817c0-33.37,149.38-32.07,149.38,0v261.92A28.32,28.32,0,0,1,2462.16,1107.14Z"/><path class="cls-29" d="M2462.16,1095.67c-31.15,5.19-61.53,4.64-91.35,0a29.8,29.8,0,0,1-29.8-29.8V823.11c49.18,12.57,99,12.26,149.38,0v244.33A28.23,28.23,0,0,1,2462.16,1095.67Z"/><path class="cls-30" d="M2470.69,1034.08c-37,5-74.79,4.83-113.25,0a11,11,0,0,1-11-11V881.52a11,11,0,0,1,11-11c39.95,4.38,78.23,5.45,113.25,0a11,11,0,0,1,11,11v141.59A11,11,0,0,1,2470.69,1034.08Z"/><path class="cls-29" d="M2412.45,801.84s-21.83,1.67-21.83-11v-45.4a23,23,0,0,1,23-23h0a23,23,0,0,1,23,23v45.4C2436.55,803.51,2425.08,801.84,2412.45,801.84Z"/><path class="cls-31" d="M2434.92,747.33a125.52,125.52,0,0,1-42.15,0,7.05,7.05,0,0,1-7.05-7.05v-33a9,9,0,0,1,9-9h35.59A12.64,12.64,0,0,1,2443,710.91V739.3A8,8,0,0,1,2434.92,747.33Z"/><path class="cls-12" d="M2623.29,1111.92c-34.82,4.5-66.52,5.35-92.92,0a28.31,28.31,0,0,1-28.23-28.22V821.78c0-33.37,149.37-32.07,149.37,0V1083.7A28.31,28.31,0,0,1,2623.29,1111.92Z"/><path class="cls-29" d="M2623.29,1100.45c-31.15,5.19-61.53,4.65-91.35,0a29.8,29.8,0,0,1-29.8-29.79V827.9c49.17,12.57,99,12.26,149.37,0v244.33A28.22,28.22,0,0,1,2623.29,1100.45Z"/><path class="cls-30" d="M2631.82,1038.87c-37,5-74.79,4.82-113.25,0a11,11,0,0,1-11-11V886.3a11,11,0,0,1,11-11c39.95,4.38,78.23,5.45,113.25,0a11,11,0,0,1,11,11v141.6A11,11,0,0,1,2631.82,1038.87Z"/><path class="cls-29" d="M2573.58,806.63s-21.83,1.67-21.83-11v-45.4a23,23,0,0,1,23-23h0a23,23,0,0,1,23,23v45.4C2597.68,808.3,2586.21,806.63,2573.58,806.63Z"/><path class="cls-31" d="M2596.05,752.12a125.52,125.52,0,0,1-42.15,0,7.06,7.06,0,0,1-7.05-7.06v-33a9,9,0,0,1,9-9h35.59a12.64,12.64,0,0,1,12.64,12.64v28.38A8,8,0,0,1,2596.05,752.12Z"/><path class="cls-32" d="M2942.67,962.9c25.44,98.76,56.36,190.8,96.38,271.63,21.42,45.76,93.46,22,61.34-27.26,26.28,47.71,95.41,24.34,65.23-28.23,33.1,49.65,86.64,9.73,51.6-35-84.4-55.21-157.44-125.74-223-206.4Z"/><path class="cls-33" d="M2865.12,547.74l-34.59,387.65c-3,33.43,17.91,65.06,52,77.7,32.73,12.13,73.84,12.91,107.52,1.42s54.55-42.12,51.6-74.7l-35.43-390.76a54.07,54.07,0,0,0-4.4-17.08C2976.16,474.27,2895.53,464.35,2865.12,547.74Z"/><path class="cls-34" d="M3014.27,665.16c39.24,86,67.24,181.79,87.81,284.18,4.74,23.58-18.85,43-41,33.58-88.25-37.71-138.61-138.94-116-306a30,30,0,0,1,3.72-11c10.13-17.55,25.16-24.4,47.83-16.78A29.84,29.84,0,0,1,3014.27,665.16Z"/><path class="cls-35" d="M3023.21,938.46a161.79,161.79,0,0,1-42.92-23.94c20.52,31.64,48.06,54.4,80.82,68.4,22.12,9.45,45.71-10,41-33.58q-1.12-5.61-2.3-11.21C3075.59,950.13,3048,947.31,3023.21,938.46Z"/><path class="cls-36" d="M3089.41,896.6c-27.26,6.33-55.49,4.38-82.27-4.38-21.19-7.36-37.39-19.71-53-34.67a228.38,228.38,0,0,0,26.19,57,161.79,161.79,0,0,0,42.92,23.94c24.78,8.85,52.38,11.67,76.57-.33q-4.37-21.09-9.19-41.81Z"/><path class="cls-37" d="M3007.14,892.22c26.78,8.76,55,10.71,82.27,4.38l1.18-.28q-4.61-19.77-9.63-39.19a90.53,90.53,0,0,1-12.48,3.45,100.91,100.91,0,0,1-49.65-2c-20.45-5.84-37-18.5-51.6-33.59-17.95-19.2-23-45.21-27.47-71,.12,39.24,5.13,73.71,14.34,103.47C2969.75,872.51,2986,884.86,3007.14,892.22Z"/><path class="cls-38" d="M2868,544.23c53.56-39.7,81.79-26.61,93.79,20.33a44.82,44.82,0,0,1-32.51,54.37l-55.38,14.12Z"/><path class="cls-39" d="M2770.2,635.18c31.32,6.46,65.25,6.07,100.81,1.38a10.47,10.47,0,0,0,9.07-11.06l-3.6-55.55C2825.68,584.32,2792.13,607,2770.2,635.18Z"/><path class="cls-40" d="M2861.94,544.13c-77,2.66-94.78,29.5-94.78,95.93,47.49-47.09,76.46-52.4,112.92-14.56,3-23,5.47-49.75-.7-69.17A17.61,17.61,0,0,0,2861.94,544.13Z"/><circle class="cls-41" cx="2918.01" cy="566.71" r="10.17"/><path class="cls-31" d="M2991.91,1078.59v-15.76H2789.84v15.76c0,10-8.65,18.57-20.57,25.13-16.7,9.21-26.71,20.85-25.09,31.52v317.9c0,21.7,27.83,39.28,62.17,39.28h169c34.34,0,62.18-17.58,62.18-39.28v-317.9c0-12.91-9.87-24.36-25.1-31.52C2999.78,1097.76,2991.91,1088.58,2991.91,1078.59Z"/><path class="cls-29" d="M2975.86,1078.59v-15.76H2786.78v15.76c0,10-7.37,19.17-19.24,25.13-14.25,7.16-23.48,18.61-23.48,31.52v317.9c0,21.7,26,39.28,58.18,39.28H2960.4c32.13,0,58.18-17.58,58.18-39.28v-317.9c0-12.91-9.23-24.36-23.48-31.52C2983.23,1097.76,2975.86,1088.58,2975.86,1078.59Z"/><path class="cls-42" d="M2742.51,1151.63V1446c0,18.5,26.26,33.49,58.65,33.49h159.45c32.39,0,58.65-15,58.65-33.49V1151.63c0-1.06-26.25-19-26.42-20.07H2765.29C2765.12,1132.6,2742.51,1150.57,2742.51,1151.63Z"/><path class="cls-43" d="M3037.57,1353.8q-146.06,6-293.51,0V1186.64q145.33,5,293.51,0Z"/><rect class="cls-44" x="2763.04" y="1018.68" width="255.54" height="58.92" rx="7.23"/><rect class="cls-31" x="2795.41" y="1028.5" width="203.17" height="12.43" rx="5.05"/><path class="cls-31" d="M3006.78,1347.81q-116.31,4.13-233.62,0c-9.64-.33-17.18-5.89-17.18-12.59V1207.67c0-7.19,8.64-12.89,19-12.59q114.14,3.38,230.16,0c10.33-.3,18.95,5.41,18.95,12.59v127.57C3024.06,1342,3016.46,1347.47,3006.78,1347.81Z"/><path class="cls-45" d="M2827.13,1085.79a3.8,3.8,0,0,1-6.25-2.13c-7.81-39.9,1.38-63.61,28.08-72.5a3.81,3.81,0,1,1,2.4,7.24c-22.74,7.56-30,27.83-23,63.8A3.78,3.78,0,0,1,2827.13,1085.79Z"/><path class="cls-46" d="M2840.91,1086.13a3.78,3.78,0,0,1-1.79.88,3.82,3.82,0,0,1-4.47-3c-7.81-39.9,1.39-63.61,28.08-72.49a3.81,3.81,0,1,1,2.41,7.23c-22.74,7.56-30,27.83-23,63.8A3.8,3.8,0,0,1,2840.91,1086.13Z"/><path class="cls-47" d="M2857.06,1084.71a3.81,3.81,0,0,1-6.26-2.13c-7.81-39.9,1.38-63.61,28.08-72.5a3.82,3.82,0,0,1,2.41,7.24c-22.73,7.56-30,27.83-23,63.8A3.8,3.8,0,0,1,2857.06,1084.71Z"/><path class="cls-48" d="M2891.14,1092.43a3.73,3.73,0,0,1-1.78.87,3.8,3.8,0,0,1-4.47-3c-7.81-39.9,1.38-63.61,28.08-72.49a3.81,3.81,0,0,1,2.41,7.23c-22.74,7.57-30,27.84-23,63.8A3.81,3.81,0,0,1,2891.14,1092.43Z"/><path class="cls-49" d="M2904.92,1092.77a3.88,3.88,0,0,1-1.78.88,3.83,3.83,0,0,1-4.48-3c-7.81-39.9,1.38-63.62,28.08-72.5a3.81,3.81,0,1,1,2.41,7.23c-22.74,7.56-30,27.84-23,63.8A3.83,3.83,0,0,1,2904.92,1092.77Z"/><path class="cls-50" d="M2921.07,1091.35a3.88,3.88,0,0,1-1.78.88,3.83,3.83,0,0,1-4.48-3c-7.8-39.9,1.38-63.62,28.08-72.5a3.81,3.81,0,1,1,2.41,7.23c-22.74,7.56-30,27.84-23,63.8A3.85,3.85,0,0,1,2921.07,1091.35Z"/><path class="cls-51" d="M2897.67,1023.58l54.29,5.7,18.73-5.08C2939.85,1010.38,2917,1013.3,2897.67,1023.58Z"/><path class="cls-52" d="M2827.18,1016.16l54.3,5.7,18.73-5.09C2869.37,1003,2846.52,1005.88,2827.18,1016.16Z"/><path class="cls-31" d="M3056.32,1917.18c-28.29,3.65-54,4.34-75.48,0a23,23,0,0,1-22.93-22.93V1681.5c0-27.1,121.34-26,121.34,0v212.75A23,23,0,0,1,3056.32,1917.18Z"/><path class="cls-53" d="M3056.32,1907.86a231.16,231.16,0,0,1-74.2,0,24.2,24.2,0,0,1-24.21-24.2V1686.47c40,10.21,80.41,10,121.34,0v198.47A22.93,22.93,0,0,1,3056.32,1907.86Z"/><path class="cls-31" d="M3063.24,1857.84a354.42,354.42,0,0,1-92,0,8.91,8.91,0,0,1-8.92-8.91v-115a8.91,8.91,0,0,1,8.92-8.91c32.45,3.56,63.54,4.42,92,0a8.91,8.91,0,0,1,8.92,8.91v115A8.91,8.91,0,0,1,3063.24,1857.84Z"/><path class="cls-29" d="M3015.94,1669.2s-17.73,1.35-17.73-8.91v-36.87a18.72,18.72,0,0,1,18.65-18.66h0a18.72,18.72,0,0,1,18.66,18.66v36.87C3035.52,1670.55,3026.2,1669.2,3015.94,1669.2Z"/><path class="cls-31" d="M3034.19,1624.92a101.87,101.87,0,0,1-34.23,0,5.73,5.73,0,0,1-5.73-5.73v-26.8a7.32,7.32,0,0,1,7.32-7.32h28.9a10.27,10.27,0,0,1,10.27,10.27v23.05A6.53,6.53,0,0,1,3034.19,1624.92Z"/><path class="cls-12" d="M1874.92,3068.82s546.57-943.9,1226.62-1340.73c45.71-26.67,105.37,7.51,105,60.36C3204.23,2141.85,3094.66,3182.1,1874.92,3068.82Z"/><path class="cls-28" d="M1999.23,3035.51c-3.29,1.64-1,6.55,2.51,5.36,128.9-43.71,650.62-293.08,1020.86-997.12,1.19-2.27-2.21-4.32-3.6-2.17C2916.69,2199.68,2518.71,2776.23,1999.23,3035.51Z"/><path class="cls-54" d="M1446.5,3083.94c-61.35-67.77-265.42-499.37-314.28-830.1-21-142.45,75.73-266.93,185.12-238.09,327,86.23,628.39,57.45,997.65-31.87,96.71-23.4,219.76,154.61,198.77,279.5-48.1,286.17-192.59,537-322.21,820.56Z"/><path class="cls-55" d="M1297.91,3078.63c58.85-116.22,166-131.38,254.22-9,17.21,23.89,7.23,57.71-20.4,67.87-76.86,28.25-176.15,20.19-220.62-8.74A38.92,38.92,0,0,1,1297.91,3078.63Z"/><path class="cls-56" d="M2257.86,3105.08c-58.85-116.22-166-131.38-254.22-9-17.21,23.89-7.22,57.71,20.41,67.87,76.85,28.25,176.15,20.18,220.61-8.74A38.91,38.91,0,0,0,2257.86,3105.08Z"/><path class="cls-57" d="M1721.29,3124.74H1540.54c57.49-196.65-205.31-747.69-183-1135.95l297.62-69C1688.16,2405,1734,2987.94,1721.29,3124.74Z"/><path class="cls-58" d="M1889.92,3142.06h130.89a23,23,0,0,0,22.71-26.47c-31.25-217.72,185.7-663.91,188.3-1043.79L1959.22,1941a23,23,0,0,0-26.43,21.12c-31.28,457.34-72.72,992.16-65.82,1158A23,23,0,0,0,1889.92,3142.06Z"/><path class="cls-59" d="M2231.23,2060.86c4.72,38.89-19.52,82.75-54.21,97.27-252.11,105.53-489.28,90.61-750.47-5.09-45.93-16.83-68-64.43-69.34-115.49-8.77-334.26,212.63-583.69,204.85-921.87h401.35C2049.93,1479.07,2165,1515.62,2231.23,2060.86Z"/><path class="cls-60" d="M1474.23,3139.69c58.85-116.22,166-131.38,254.22-9,17.21,23.88,7.22,57.71-20.41,67.87-76.85,28.25-176.14,20.18-220.61-8.75A38.9,38.9,0,0,1,1474.23,3139.69Z"/><path class="cls-61" d="M2107.4,3163.93c-58.85-116.22-166.05-131.38-254.22-9-17.21,23.89-7.23,57.71,20.4,67.87,76.86,28.25,176.15,20.19,220.62-8.74A38.92,38.92,0,0,0,2107.4,3163.93Z"/><path class="cls-62" d="M1555,618.55C1475.63,669.13,1405.84,719,1360.82,766.9a113.63,113.63,0,0,0-29.55,146.86L1394,1023a160.31,160.31,0,0,1,20.89,91.18l-10.58,149.47c-2.21,31.1,33.71,49.89,58,30.35,59.49-20.64,104.25-61.11,140.51-113Z"/><path class="cls-63" d="M2038.46,618.55C2117.79,669.13,2187.58,719,2232.6,766.9a113.63,113.63,0,0,1,29.55,146.86L2199.45,1023a160.39,160.39,0,0,0-20.89,91.18l10.58,149.47c2.21,31.1-33.71,49.89-58,30.35-59.49-20.64-104.25-61.11-140.51-113Z"/><path class="cls-64" d="M2076.92,733.81c0-134.69-129.28-243.88-288.76-243.88s-288.77,109.19-288.77,243.88c0,48.18,16.55,93.09,45.1,130.91s37.81,84.67,26.29,129.33a177,177,0,0,0-5.62,44.28c0,114.45,95.09,210.85,245.36,207.22,154.5-3.73,245.36-92.77,245.36-207.22a179.59,179.59,0,0,0-21.41-84.76c-16.87-31.75-15.61-69.06,4.69-99.11C2063.19,818.88,2076.92,777.7,2076.92,733.81Z"/><path class="cls-65" d="M1670.16,514.88c65.62,125,146.95,311.9,107.79,435.59-6.45,20.38-10.69,41.24-31.3,51.63-53.51,27-98.74,60-118.61,90.23-15.69,23.85-32.33,54.22-14.53,76.85,34.17,43.46,85.29,66.66,150.15,72.79,13.46,1.27,27-3,36-12,10.71-10.59,16.63-24.52,18.55-41.25a.89.89,0,0,1,1.72-.06c1.22,6.53,1.93,13.13,4.32,17.78,11.48,22.31,39.49,33.82,66.11,27.87,70.13-15.68,86.86-35,122.38-71.27,16.53-16.87,6.94-59.63-4.67-79.52-20.12-34.49-48.63-54.09-126.2-85.59-19.19-7.79-29.37-24.7-33.41-43.23-22-100.63,19.19-291.23,62.63-438.15C1822.34,475.88,1727.15,494,1670.16,514.88Z"/><path class="cls-66" d="M1875.4,1047.77c0,14.53-46.77,36.13-61.66,37.61-12.38,1.23-61.67-23.08-61.67-37.61s27.61-26.31,61.67-26.31S1875.4,1033.24,1875.4,1047.77Z"/><circle class="cls-67" cx="1922.9" cy="789.75" r="24.06"/><circle class="cls-68" cx="1694.22" cy="786.81" r="24.06" transform="translate(-60.13 1428.45) rotate(-45)"/><path class="cls-69" d="M2316,1993.75a1.54,1.54,0,0,1,.4.45l.1.07a2.13,2.13,0,0,1,.43,1.22v0l0,.55a10.63,10.63,0,0,0,.19,2l0,.33c1.91,11.34,12.51,42.39,23.89,82.57.11.33.18.7.29,1,25.52,90.15,62.42,223.63,73.54,286.45,0,0,19.74,7.19,50.38,12.4h.08c44.26,12.14,111.07,20.75,173.23,4.47,0,0,34.54-264.77-5.94-501,0,0-107.3-32.7-221.91-39.92-.59,0-1.18-.16-1.77-.19-9.24-.52-18.52-.93-27.8-.93h-7.37c-1,0-60.13,26.92-65.84,31.78C2307.88,1875.07,2270,1988.05,2316,1993.75Z"/><path class="cls-12" d="M2260.48,1906.63c-42.93,56.59-97.15,145.58-212.66,157.8-37,3.92-80.25,0-131.47-15.45l-42-10.25s-8.67,41.49,87.79,69.57c0,0,36.18,18.89,88.64,28.83,82.4,15.61,205,9.11,290.68-127.44l38.3-164.86S2317.16,1831.92,2260.48,1906.63Z"/><path class="cls-70" d="M1779.23,2118.92a28.11,28.11,0,0,1,11.37-21.53l67-49.54s-1.37-9.89-20-12-19.61-22.11-19.61-22.11,25.89,4.54,64.12,12.47c21.86,4.54,37.13,18.62,46.2,29.84l-12.67,30.34c-42.52,25.84-88.49,40.62-137,47.36Z"/><path class="cls-71" d="M2369.38,1843.94a11.24,11.24,0,0,1,1.14,0c.11,0,.19,0,.3-.07Z"/><path class="cls-72" d="M2346.14,1842.69l.15.07v-.14A.21.21,0,0,1,2346.14,1842.69Z"/><path class="cls-73" d="M2413.88,3128.57s6,33.95,8.94,67.55a23.15,23.15,0,0,1-22.15,25.08c-44.75,1.87-140.47,5.49-174.81,4a7.54,7.54,0,0,1-6.63-10.32h0a16.87,16.87,0,0,1,8.63-9.09l158.1-72.66Z"/><path class="cls-74" d="M2418.79,3108.63l-4.82,40.6s-27.69,12.89-46.61-1.62l11.47-45.25Z"/><path class="cls-75" d="M2415.17,2345.29c2.08,10.6,11.17,529.12-44.25,761.48a7.88,7.88,0,0,0,4.62,9.18,137.42,137.42,0,0,0,45.14,9.17,13.58,13.58,0,0,0,13.48-9.75c15.84-53.91,91.76-324,101.66-582.06,11.07-288.33,0-9.82,0-9.82l-6.49-178.22Z"/><path class="cls-76" d="M2595.76,3146.28s9.54,17.14,18.78,62.67a14.13,14.13,0,0,1-12.43,16.92c-14.77,1.45-37.52,3.32-55.74,3.2a14.08,14.08,0,0,1-13.94-15.71c2-16.62,8.3-43.89,27.73-65.15Z"/><path class="cls-77" d="M2604.14,3094.06l-11.26,61.4s-11.13,8.28-33.14,2.28l5.37-66.07Z"/><path class="cls-78" d="M2634.55,2361.2c45.33,273.57-9.84,676.16-28.44,755a12.29,12.29,0,0,1-9.92,9.33c-8.31,1.37-22,2.5-35.46-1.42a11.26,11.26,0,0,1-8.09-10.37c-2.5-63.7,2-454.78-40.25-609.34a35.13,35.13,0,0,0-13.54-19.37l-82-58.28-6.28-94.21Z"/><path class="cls-10" d="M2579.33,2010l52.11-131.54s126.89,86.22,147.76,195.53c-24,1.76-67.61,8-110.31,29.56C2659.5,2052,2579.33,2010,2579.33,2010Z"/><path class="cls-79" d="M2483.3,1732.54l43.23,125a4.51,4.51,0,0,1-2.06,5.42c-11.78,6.51-54.23,25.34-105.39-7.09a21.23,21.23,0,0,1-9.76-15.15l-14-108.19Z"/><path class="cls-10" d="M2565.34,1864.43l-51.58-43.81L2436.6,2009l56.27,748.57,175.68,5.25a4.5,4.5,0,0,0,4.63-4.65L2648.65,2038s-.67-155.62-17.21-159.51S2565.34,1864.43,2565.34,1864.43Z"/><path class="cls-12" d="M2316.74,1994.27l.21,1.22v0l0,.55.19,2,1.38.33,15.79,148.63v.08l60,620.13c.15,1.25-.09,2.35.86,3.13a3.62,3.62,0,0,0,3,.88l94.92-13.7-27.71-372.25-.08-.55-28.68-385.47-26-154.78v-.07l-3.93-23.83-25.57,22.46-.39,0-7.32.41-3,.14c-4.71,1.26-24,8.55-24,8.55s-6.76,3-10,4.56a4,4,0,0,0-.37.23c-1,.47-1.86,1-2.86,1.5-.15.08,2.07.15,1.93.26-2,1.11-2.46,2.32-2.46,3.61v.08l-13,131.28-1.47.45Z"/><polygon class="cls-29" points="2403.66 2007.47 2403.66 2025.8 2336.03 2021.72 2336.03 2001.37 2403.66 2007.47"/><path class="cls-12" d="M2440.76,2052.16a1.65,1.65,0,0,1-.78-3.11l58.55-31.44,8.19-55.17a1.66,1.66,0,0,1,1.35-1.38l21.94-3.9,22.58-73.34a1.63,1.63,0,0,1,2.06-1.09,1.65,1.65,0,0,1,1.1,2.07l-22.88,74.3a1.64,1.64,0,0,1-1.29,1.14l-21.76,3.87-8.14,54.8a1.64,1.64,0,0,1-.85,1.22L2441.54,2052A1.69,1.69,0,0,1,2440.76,2052.16Z"/><path class="cls-10" d="M2426.67,2033.91a1.25,1.25,0,0,1-1.07-.63l-31.36-55a1.24,1.24,0,0,1-.14-.82l5.06-30.43-25-13.32a1.25,1.25,0,0,1-.66-1.18l6.43-89.55a1.24,1.24,0,0,1,2.48.17l-6.37,88.75,25.11,13.36a1.25,1.25,0,0,1,.64,1.3l-5.14,30.87,31.13,54.58a1.25,1.25,0,0,1-.46,1.7A1.22,1.22,0,0,1,2426.67,2033.91Z"/><path class="cls-10" d="M2468.29,2130s142.46,80.52,190.53,11.77c10-14.28,12.37-28.47,9.91-42,42.7-21.56,86.33-27.8,110.31-29.57,6.29,33,3,68-16.4,103.43-84.2,154-313.2-8.51-313.2-8.51Z"/><path class="cls-12" d="M2602.39,2169.76c-43.19,0-98-20.87-101-22-.74-.24-19.67-6.8-26.83-20.78a1.65,1.65,0,1,1,2.95-1.5c6.54,12.76,24.82,19.11,25,19.17,1,.39,94.79,36.1,132.83,15.22a1.65,1.65,0,0,1,1.59,2.9C2627.72,2167.8,2615.6,2169.76,2602.39,2169.76Z"/><path class="cls-12" d="M2653.78,2241.49h-.06c-109.36-3.77-171.86-54-172.48-54.54a1.66,1.66,0,1,1,2.1-2.56c.61.5,62.32,50.06,170.5,53.79a1.66,1.66,0,0,1-.06,3.31Z"/><path class="cls-80" d="M2369.17,1614.05s-20.85,75.82-17.58,113.58-1.31,63.22,43.08,64.56,77.79-25.45,92.22-65.6c0,0,22.74-61.92,12.42-84.48S2369.17,1614.05,2369.17,1614.05Z"/><path class="cls-81" d="M2546.08,1618.27c-9.45-5.89-15.6-3.86-19.2-.89a3,3,0,0,1-3.27.37c-.1-1.12-7.27-78.62-112.91-65a27.29,27.29,0,0,1-27.2-13.57c-12.49-22-36.18-54.34-54.07-22.74-25.46,45-33,103.93,39.08,116.15,4.27.73,8.57,1.3,12.9,1.76,29.76,7.34,63.65,9.65,76.22,12.82,21,5.29,4.95,54.12,4.95,54.12l5.47-.78,11.67-1.67c1.7-.25,3.35,1.67,3.48,3.38l2.71,33.36a3.18,3.18,0,0,0,2.69,2.89c5.34.58,19.18.06,40.46-15.56,20.8-15.26,10.82-23,4.45-26a2.94,2.94,0,0,1-.81-4.68C2561.1,1661.35,2562.52,1628.51,2546.08,1618.27Z"/><path class="cls-82" d="M2467.88,1708.92s5.33-47.28,27.6-37.42-3.3,52.59-19.49,56.65Z"/><path class="cls-12" d="M2349.8,1618.31a1.47,1.47,0,0,0,.7-2.61c-15.18-12-23.52-25.9-24.79-41.27-2.2-26.75,17.94-49.25,18.14-49.47a1.47,1.47,0,1,0-2.17-2c-.87,1-21.19,23.63-18.9,51.66,1.33,16.24,10,30.82,25.9,43.37A1.49,1.49,0,0,0,2349.8,1618.31Z"/><polygon class="cls-12" points="2238.85 2168.04 2239.44 2169.14 2161.9 2210.99 2155.8 2212.86 2238.85 2168.04"/><path class="cls-83" d="M2243.88,2158.93l5.93,11-18.16,8.88a3.36,3.36,0,0,1-4.44-1.42l-2-3.65a3.37,3.37,0,0,1,1.24-4.5Z"/><path class="cls-31" d="M2380.79,2068.53l19.74,36.57-139.68,75.38a5.93,5.93,0,0,1-8.06-2.41L2238.7,2152a6,6,0,0,1,2.42-8.07Z"/><path class="cls-84" d="M2400.14,2101.76l-128.53,69.37a16.74,16.74,0,0,1-22.68-6.79l-.87-1.6a16.76,16.76,0,0,1,6.78-22.69l128.53-69.36Z"/><path class="cls-12" d="M2400.14,2101.76l-128.53,69.37a16.74,16.74,0,0,1-22.68-6.79l-.87-1.6a16.76,16.76,0,0,1,6.78-22.69l128.53-69.36Z"/><path class="cls-85" d="M2249.55,2130h61.64a0,0,0,0,1,0,0v35.31a0,0,0,0,1,0,0h-61.64a5.06,5.06,0,0,1-5.06-5.06v-25.19a5.06,5.06,0,0,1,5.06-5.06Z" transform="translate(-746.73 1339.51) rotate(-28.36)"/><rect class="cls-86" x="2364.12" y="2033.63" width="4.69" height="132.49" transform="translate(1642.47 5179.72) rotate(-118.36)"/><rect class="cls-87" x="2288.78" y="2129.68" width="35.43" height="5" transform="translate(1525.57 5174.59) rotate(-118.36)"/><path class="cls-88" d="M2382.49,2062.47l24,44.54a2.5,2.5,0,0,1-1,3.39h0a2.5,2.5,0,0,1-3.39-1l-24-44.55a2.51,2.51,0,0,1,1-3.39h0A2.51,2.51,0,0,1,2382.49,2062.47Z"/><path class="cls-89" d="M2414.83,2045l24.15,44.52a2.5,2.5,0,0,1-1,3.39h0a2.51,2.51,0,0,1-3.39-1l-24-44.55a2.51,2.51,0,0,1,1-3.39h0A2.39,2.39,0,0,1,2414.83,2045Z"/><path class="cls-90" d="M2458.5,2166.52c5.93,3.43,11.33,7.49,17.58,10.84a1.21,1.21,0,0,0,.6.19c.4,0,.64-.45.81-.82,1.83-4,4.92-8.45,4.92-13a87.52,87.52,0,0,0,.6-17c-.4-8.05-2.75-12.5-7.08-19.35-3.6-5.69-2.78-9-2.39-15,.35-5.41-2.05-11.65-4-16.62-5.41-13.58-14.91-25.07-24.58-35.83L2432,2045.56c-3.16-3.52-7.39-7.39-12-6.16-2,1-1,14.84-.48,17.36,1.33,6.73,5.72,13.87,8.38,20.2a11.17,11.17,0,0,1,1.26,5.38q-22.87-4-46.06-6.07c-7.41-.65-33.74-6.62-37.12,2.46-3.13,8.42,22.54,11.52,27.49,13.65,8.81,3.78,17,11.12,11.56,20.7-1.81,3.22-3.7,6.62-3.67,10.32.13,17.84,28.86,24.53,41.73,29,9.54,3.32,19.1,6.61,28.4,10.56A61.19,61.19,0,0,1,2458.5,2166.52Z"/><path class="cls-91" d="M2558,2100.08l-7.63-.4c.66-12.65,1.39-25.46,2.11-38.27,5.62-99.28,9-212.26-14.07-219.74l-6.8-5.9c23.88-.64,30.71,28.1,32.82,77,1.78,41.39-1.32,96.15-4.32,149.11C2559.37,2074.64,2558.64,2087.44,2558,2100.08Z"/><ellipse class="cls-92" cx="2550.1" cy="2114.5" rx="23.32" ry="28.58"/><ellipse class="cls-31" cx="2550.17" cy="2115.16" rx="14.17" ry="21.96"/><path class="cls-93" d="M2351.22,1918.76l-7.63-.34c2.36-52,15.51-80.89,45.66-82.64l-8.12,7.64C2365.47,1847.72,2353.39,1871,2351.22,1918.76Z"/><path class="cls-94" d="M2345.56,2059.1a40.42,40.42,0,0,1-5.36-.36c-3-.39-13-2.12-16.07-7.69-3.75-6.81-8.79-74.55-8.57-86.88.35-20,3.2-43.72,22.25-50.15,7.6-2.57,18,4.5,23,9.07,8.27,7.63,13.58,17.93,17.27,26.05,4.87,10.69,8.93,22.62,13.16,38.69,3.41,13,11.74,58.07,8.67,62.12-3.65,4.82-10.29,5.7-16.23,6.14l-.29-3.81c5-.38,10.63-1.07,13.36-4.49,1.13-4.35-4.73-42-9.21-59-4.17-15.86-8.16-27.6-12.93-38.09-3.55-7.79-8.62-17.66-16.39-24.82-4.7-4.33-13.69-10.1-19.18-8.26-16.79,5.67-19.32,27.88-19.65,46.6-.26,14.74,5.12,79.56,8.1,85,1.42,2.58,6.73,4.89,13.22,5.75s12.4,0,14.41-2.1l2.75,2.65C2355.31,2058.16,2350.43,2059.1,2345.56,2059.1Z"/><path class="cls-95" d="M2393.19,2051.38c.53,2.44-3.52,5.39-9.06,6.6s-10.45.22-11-2.21,3.52-5.4,9-6.61S2392.65,2048.94,2393.19,2051.38Z"/><path class="cls-96" d="M2359.76,2054c.54,2.44-3.52,5.4-9.05,6.61s-10.45.22-11-2.22,3.52-5.39,9.05-6.61S2359.23,2051.6,2359.76,2054Z"/><path class="cls-97" d="M2317.48,1976.15a3.83,3.83,0,0,1-3.82-3.74c0-2.79-.06-5.57,0-8.27.36-20.6,3.36-45.12,23.55-51.93,10.4-3.51,23.44,8.14,24.9,9.48,8.52,7.86,13.94,18.37,17.71,26.66,2.34,5.13,4.48,10.53,6.54,16.51a3.82,3.82,0,1,1-7.22,2.5c-2-5.75-4-10.93-6.27-15.85-3.47-7.63-8.43-17.27-15.94-24.2-5.35-4.93-13.27-9.22-17.28-7.86-15.66,5.29-18,26.73-18.35,44.82-.05,2.6,0,5.29,0,8a3.83,3.83,0,0,1-3.75,3.9Z"/></g></svg>